<svg width="220" height="154" viewBox="0 0 220 154" fill="none" xmlns="http://www.w3.org/2000/svg">
<path fill-rule="evenodd" clip-rule="evenodd" d="M130.696 129.97L172.664 142.149L208.643 137.053L208.914 18.2622L172.183 23.4659L130.966 11.5037L89.3193 23.3913L47.7275 11.3201L11.3607 21.7006L11.0903 140.167L47.4584 129.786L89.0502 141.857L130.696 129.97ZM0.508087 154L0.827716 13.894L47.7522 0.5L89.3439 12.5706L130.991 0.683678L172.958 12.8634L219.492 6.27162L219.174 146.053L171.888 152.752L130.671 140.79L89.0255 152.677L47.4338 140.606L0.508087 154Z" fill="white"/>
<path fill-rule="evenodd" clip-rule="evenodd" d="M172.288 18.7508L130.714 6.68302L89.0858 18.5672L47.5119 6.5L5.88317 18.3842L5.58891 147.633L47.217 135.749L88.7909 147.816L130.42 135.933L171.994 148L213.609 142.104L213.903 12.8548L172.288 18.7508Z" fill="#F1F6F9"/>
<path fill-rule="evenodd" clip-rule="evenodd" d="M5.88255 18.3836L5.58891 147.633L47.2165 135.749L88.7906 147.816L130.42 135.933L171.994 148L213.609 142.105L213.903 12.8548L172.288 18.7508L130.714 6.68302L89.0854 18.5672L47.5114 6.5L5.88255 18.3836Z" fill="#F1F6F9"/>
<path fill-rule="evenodd" clip-rule="evenodd" d="M73.6721 71.0115L84.7648 94.5H102.125L97.1647 76.5261L88.6869 61.5L73.6721 71.0115Z" fill="#3B3F51" fill-opacity="0.5"/>
<path fill-rule="evenodd" clip-rule="evenodd" d="M179.732 17.9313L168.684 22.7031L170.873 22.6514L177.418 46L214.353 38.7348L214.411 13L179.732 17.9313Z" fill="#556976" fill-opacity="0.5"/>
<path fill-rule="evenodd" clip-rule="evenodd" d="M24.8961 55.8381L28.5265 56.1416L40.5469 87.5L72.1478 72.7155L66.4722 62.6186L56.9088 50L24.8961 55.8381Z" fill="#697882" fill-opacity="0.5"/>
<mask id="mask0" mask-type="alpha" maskUnits="userSpaceOnUse" x="5" y="6" width="210" height="143">
<path fill-rule="evenodd" clip-rule="evenodd" d="M6.11989 18.4709L5.82607 147.796L47.4809 135.905L89.082 147.98L130.739 136.089L172.34 148.163L213.982 142.264L214.276 12.9382L172.634 18.8377L131.033 6.76345L89.3771 18.6546L47.7759 6.57971L6.11989 18.4709Z" fill="white"/>
</mask>
<g mask="url(#mask0)">
<path fill-rule="evenodd" clip-rule="evenodd" d="M56.5413 47.32C56.4304 47.1186 56.3232 46.927 56.2203 46.7433L56.8074 46.4213C56.9127 46.6068 57.0205 46.8015 57.1326 47.004L56.5413 47.32Z" fill="#C7CEDC"/>
</g>
<mask id="mask1" mask-type="alpha" maskUnits="userSpaceOnUse" x="5" y="6" width="210" height="143">
<path fill-rule="evenodd" clip-rule="evenodd" d="M6.11989 18.4709L5.82607 147.796L47.4809 135.905L89.082 147.98L130.739 136.089L172.34 148.163L213.982 142.264L214.276 12.9382L172.634 18.8377L131.033 6.76345L89.3771 18.6546L47.7759 6.57971L6.11989 18.4709Z" fill="white"/>
</mask>
<g mask="url(#mask1)">
<path fill-rule="evenodd" clip-rule="evenodd" d="M48.881 29.4157C48.7221 29.0342 48.5613 28.6456 48.3993 28.252L49.0221 28.004C49.1841 28.3969 49.3442 28.7838 49.5032 29.1646L48.881 29.4157ZM49.8555 31.7363L49.367 30.5769L49.9886 30.324L50.4764 31.4822L49.8555 31.7363ZM50.8313 34.0533C50.6748 33.6791 50.5122 33.2929 50.3446 32.8951L50.9655 32.6416C51.1331 33.04 51.2963 33.4269 51.4534 33.8022L50.8313 34.0533ZM51.5809 36.4036C51.475 36.0222 51.3653 35.6177 51.252 35.189L51.9019 35.0217C52.0152 35.448 52.1242 35.8494 52.2296 36.229L51.5809 36.4036ZM52.2986 38.8231C52.1791 38.4508 52.0559 38.0499 51.9277 37.6158L52.5733 37.4314C52.6996 37.8601 52.8209 38.2561 52.9392 38.6236L52.2986 38.8231ZM53.164 41.208C53.0082 40.8351 52.8579 40.447 52.7051 40.0219L53.3384 39.8018C53.488 40.2159 53.634 40.5937 53.7862 40.9557L53.164 41.208ZM54.3012 43.4928C54.0689 43.0878 53.8761 42.7312 53.6956 42.3698L54.2993 42.0781C54.4736 42.4274 54.6603 42.7737 54.8863 43.1678L54.3012 43.4928ZM55.5923 45.6576C55.3822 45.3029 55.1863 44.9785 55.0015 44.6723L54.9467 44.5819L55.5245 44.2435L55.5793 44.3345C55.7654 44.6419 55.9619 44.9682 56.1732 45.3247L55.5923 45.6576Z" fill="#C7CEDC"/>
</g>
<mask id="mask2" mask-type="alpha" maskUnits="userSpaceOnUse" x="5" y="6" width="210" height="143">
<path fill-rule="evenodd" clip-rule="evenodd" d="M6.11989 18.4709L5.82607 147.796L47.4809 135.905L89.082 147.98L130.739 136.089L172.34 148.163L213.982 142.264L214.276 12.9382L172.634 18.8377L131.033 6.76345L89.3771 18.6546L47.7759 6.57971L6.11989 18.4709Z" fill="white"/>
</mask>
<g mask="url(#mask2)">
<path fill-rule="evenodd" clip-rule="evenodd" d="M47.9173 27.0713L47.6691 26.4546L48.2943 26.212L48.542 26.8269L47.9173 27.0713Z" fill="#C7CEDC"/>
</g>
<mask id="mask3" mask-type="alpha" maskUnits="userSpaceOnUse" x="5" y="6" width="210" height="143">
<path fill-rule="evenodd" clip-rule="evenodd" d="M6.11989 18.4709L5.82607 147.796L47.4809 135.905L89.082 147.98L130.739 136.089L172.34 148.163L213.982 142.264L214.276 12.9382L172.634 18.8377L131.033 6.76345L89.3771 18.6546L47.7759 6.57971" fill="white"/>
</mask>
<g mask="url(#mask3)">
<path fill-rule="evenodd" clip-rule="evenodd" d="M70.4504 72.9846L69.7827 73.0641C69.7827 73.0617 69.7556 72.8446 69.673 72.4377L70.3328 72.3085C70.4203 72.7439 70.4492 72.9749 70.4504 72.9846Z" fill="#C7CEDC"/>
</g>
<mask id="mask4" mask-type="alpha" maskUnits="userSpaceOnUse" x="5" y="6" width="210" height="143">
<path fill-rule="evenodd" clip-rule="evenodd" d="M6.11989 18.4709L5.82607 147.796L47.4809 135.905L89.082 147.98L130.739 136.089L172.34 148.163L213.982 142.264L214.276 12.9382L172.634 18.8377L131.033 6.76345L89.3771 18.6546L47.7759 6.57971L6.11989 18.4709Z" fill="white"/>
</mask>
<g mask="url(#mask4)">
<path fill-rule="evenodd" clip-rule="evenodd" d="M69.423 71.3538C69.3411 71.0361 69.2419 70.6759 69.1224 70.2769L69.7674 70.0895C69.8893 70.4976 69.991 70.8657 70.0747 71.1907L69.423 71.3538Z" fill="#C7CEDC"/>
</g>
<mask id="mask5" mask-type="alpha" maskUnits="userSpaceOnUse" x="5" y="6" width="210" height="143">
<path fill-rule="evenodd" clip-rule="evenodd" d="M6.11989 18.4709L5.82607 147.796L47.4809 135.905L89.082 147.98L130.739 136.089L172.34 148.163L213.982 142.264L214.276 12.9382L172.634 18.8377L131.033 6.76345L89.3771 18.6546L47.7759 6.57971L6.11989 18.4709Z" fill="white"/>
</mask>
<g mask="url(#mask5)">
<path fill-rule="evenodd" clip-rule="evenodd" d="M68.7823 69.2072C68.7152 69.0071 68.6431 68.7997 68.5667 68.5856L69.2018 68.3673C69.2794 68.5856 69.3521 68.7954 69.4205 68.9998L68.7823 69.2072Z" fill="#C7CEDC"/>
</g>
<mask id="mask6" mask-type="alpha" maskUnits="userSpaceOnUse" x="5" y="6" width="210" height="143">
<path fill-rule="evenodd" clip-rule="evenodd" d="M6.11989 18.4709L5.82607 147.796L47.4809 135.905L89.082 147.98L130.739 136.089L172.34 148.163L213.982 142.264L214.276 12.9382L172.634 18.8377L131.033 6.76345L89.3771 18.6546L47.7759 6.57971L6.11989 18.4709Z" fill="white"/>
</mask>
<g mask="url(#mask6)">
<path fill-rule="evenodd" clip-rule="evenodd" d="M219.085 36.0213C210.318 36.9194 193.595 40.4437 192.374 40.7032L178.352 42.7728C177.2 37.9357 175.877 33.9202 174.069 29.7526L173.513 28.4731C172.72 26.6491 171.828 24.5953 170.893 22.4159C176.116 20.5877 186.347 16.9755 198.102 12.8175L201.119 17.4763C201.381 17.8802 201.854 18.0706 202.307 17.996C202.457 17.9705 202.606 17.9166 202.743 17.8299C203.29 17.4866 203.452 16.7705 203.102 16.2314L200.372 12.0146C204.462 10.5678 208.703 9.06701 212.958 7.56015C213.356 8.91481 214.155 11.7594 215.145 15.9489L213.12 16.8087L209.499 18.3689C209.212 18.492 208.987 18.7237 208.874 19.0117C208.76 19.2991 208.769 19.6193 208.896 19.9013L210.866 24.249L211.385 25.9821C211.554 26.5509 212.129 26.8935 212.707 26.7977C212.754 26.7898 212.799 26.7795 212.846 26.7661C213.469 26.5854 213.825 25.9414 213.641 25.3278L213.101 23.5214C213.086 23.4716 213.068 23.4237 213.046 23.3764L211.527 20.0225L214.057 18.9329L215.677 18.2458C216.728 22.8998 217.934 28.8751 219.085 36.0213ZM220.424 45.1292C214.482 45.259 205.735 46.8131 205.314 46.8889C205.292 46.8926 205.271 46.9011 205.25 46.9065L189.608 50.4993L180.226 52.1196C179.802 49.6637 179.378 47.4335 178.935 45.3627L192.815 43.3137C192.842 43.3107 192.87 43.3052 192.898 43.2992C193.095 43.2579 210.781 39.5159 219.496 38.6397C219.813 40.7141 220.124 42.8783 220.424 45.1292ZM221.376 52.934C213.309 53.5404 188.299 57.6165 181.301 58.7722C181.09 57.3909 180.882 56.0678 180.676 54.8071L190.118 53.1583C190.142 53.1541 190.153 53.0716 190.178 53.0662L205.824 49.4824C206.422 49.3763 215.231 47.8404 220.765 47.767C220.975 49.4454 221.179 51.167 221.376 52.934ZM222.791 68.88L203.941 72.4304C203.698 72.3128 203.414 72.2733 203.13 72.3473C202.901 72.4068 202.706 72.5298 202.558 72.6911L183.832 76.2179C183.558 74.3441 183.272 72.3595 182.974 70.2462C182.537 67.1579 182.133 64.3328 181.745 61.718C195.194 59.4975 215.793 56.2982 221.688 55.8622C222.11 59.9838 222.485 64.3297 222.791 68.88ZM224.128 86.8381C220.604 86.4397 216.725 85.9352 213.739 85.5477C211.378 85.2402 209.256 84.9649 207.512 84.7557C206.537 80.7766 205.648 77.3142 205.107 75.2361L223.07 71.8543C223.742 78.0406 224.042 82.9602 224.128 86.8381ZM223.502 98.4933C219.01 97.6959 213.682 97.0908 208 96.6324C208.313 95.1698 208.831 91.7079 208.032 87.1534C209.654 87.3529 211.519 87.5954 213.431 87.8434C217.742 88.4037 221.283 88.8482 224.155 89.1708C224.157 94.1371 223.783 97.0259 223.502 98.4933ZM205.64 96.4025L205.584 96.4474C203.187 96.274 200.742 96.1248 198.282 95.9963L198.234 93.9982C198.229 93.7793 198.135 93.5707 197.974 93.4191C197.813 93.2681 197.597 93.1857 197.374 93.1911L192.334 93.3088C191.87 93.3191 191.503 93.6981 191.514 94.1547L191.551 95.6943C189.984 95.6355 188.424 95.5833 186.88 95.5366C186.479 93.2257 185.94 90.0064 185.284 85.8151C186.992 85.5337 188.466 85.2984 189.49 85.1481C192.573 84.6957 195.438 85.3112 198.208 85.9067C199.989 86.2881 201.67 86.6501 203.255 86.6737C203.715 86.681 204.532 86.7532 205.584 86.8672C206.558 91.7025 205.888 95.3341 205.64 96.4025ZM193.234 95.761L193.214 94.943L196.574 94.8647L196.599 95.912C195.478 95.858 194.355 95.8071 193.234 95.761ZM184.267 79.1594L202.792 75.6721C203.29 77.584 204.109 80.7682 205.024 84.4798C204.283 84.4083 203.693 84.3646 203.292 84.3586C201.941 84.3379 200.372 84.0002 198.71 83.6436C195.871 83.0336 192.653 82.3423 189.143 82.8571C188.115 83.0081 186.638 83.2434 184.928 83.5254C184.718 82.1598 184.498 80.7063 184.267 79.1594ZM180.946 99.9675C180.332 100.071 179.87 100.575 179.83 101.186C179.826 101.249 179.731 102.778 179.988 108.113C180.059 109.556 179.718 109.835 179.714 109.836C179.553 109.924 179.035 109.805 178.499 109.554L178.668 98.654C180.637 98.6886 182.664 98.7317 184.727 98.7856C184.762 98.9766 184.795 99.1567 184.825 99.3186L180.946 99.9675ZM170.489 95.2474C170.126 92.8516 169.775 90.5897 169.441 88.5268C172.572 87.9799 178.002 87.0351 182.632 86.2571C183.242 90.1398 183.748 93.1881 184.14 95.462C179.271 95.3389 174.624 95.2771 170.489 95.2474ZM175.818 109.063L172.548 109.281C172.025 105.63 171.498 101.999 170.986 98.5594C172.584 98.5716 174.254 98.5892 175.98 98.6128L175.818 109.063ZM175.676 118.518L174.645 118.542L173.137 113.391C173.067 112.894 172.996 112.402 172.925 111.908L175.777 111.719L175.676 118.518ZM175.763 165.298C170.028 165.168 164.775 164.624 158.936 163.666C158.69 163.626 158.442 163.62 158.195 163.647C158.103 163.656 155.817 163.909 152.133 164.33L149.59 127.819L153.657 127.724L153.997 141.858C154.005 142.175 154.144 142.475 154.383 142.688C154.621 142.901 154.938 143.009 155.259 142.985L171.777 141.79C172.313 145.441 172.83 148.896 173.314 152.006C173.971 156.233 174.824 160.765 175.763 165.298ZM176.902 170.618C177.39 172.833 177.89 175.018 178.387 177.137L165.79 178.923L156.72 179.134C155.885 179.153 155.224 179.835 155.243 180.657C155.264 181.479 155.956 182.13 156.791 182.111L165.952 181.898C166.013 181.896 166.072 181.892 166.132 181.883L179.077 180.048C180.855 187.449 182.52 193.759 183.46 197.239C175.152 198.42 166.988 199.179 162.746 199.194C162.672 199.195 162.6 199.198 162.527 199.203C162.316 199.221 141.325 200.967 129.35 200.234C127.495 200.12 125.692 200.077 123.933 200.099L123.026 195.059L128.431 194.185C128.433 194.185 128.435 194.184 128.437 194.184C128.837 194.118 129.194 193.896 129.426 193.568C129.659 193.239 129.748 192.831 129.672 192.436L126.94 178.382C126.789 177.601 126.043 177.076 125.244 177.187L120.429 177.853L118.807 173.694C126.1 172.745 133.733 171.814 140.355 171.029L140.41 173.294L131.84 173.493C131.422 173.505 131.023 173.685 130.745 173.995C130.466 174.305 130.331 174.715 130.371 175.127L130.722 178.649C130.804 179.467 131.544 180.065 132.375 179.985C132.41 179.982 132.445 179.977 132.48 179.971C133.257 179.843 133.81 179.141 133.732 178.358L133.541 176.433L141.995 176.235C142.394 176.226 142.776 176.061 143.053 175.775C143.33 175.489 143.48 175.107 143.47 174.712L143.373 170.673C151.074 169.768 156.929 169.115 158.423 168.948C164.823 169.984 170.55 170.54 176.902 170.618ZM108.477 202.387L101.819 176.069C105.869 175.443 110.662 174.771 115.724 174.099L117.355 178.278L111.613 179.072C110.793 179.193 110.21 179.94 110.326 180.754C110.443 181.568 111.207 182.135 112.034 182.021L119.614 180.972C119.643 180.969 119.673 180.964 119.701 180.96L124.24 180.332L126.409 191.495L113.098 193.646C113.096 193.646 113.094 193.646 113.091 193.646C112.271 193.783 111.715 194.547 111.85 195.356C111.986 196.168 112.763 196.718 113.588 196.584L120.04 195.541L120.881 200.212C116.462 200.477 112.342 201.195 108.477 202.387ZM102.483 204.704C102.213 204.83 101.92 204.966 101.614 205.108C99.0394 197.283 95.421 186.25 92.5856 177.473C93.164 177.386 93.7473 177.297 94.3418 177.208C95.7887 176.99 97.2838 176.764 98.8182 176.53L105.61 203.378C104.549 203.783 103.507 204.223 102.483 204.704ZM89.1674 210.632L82.8898 190.688L87.763 187.903C88.4849 187.49 88.7307 186.579 88.3112 185.868C87.8911 185.156 86.9659 184.915 86.2439 185.328L81.9708 187.77L79.4027 179.612C81.8155 179.164 84.4113 178.735 87.2079 178.296C90.1629 187.455 94.0295 199.244 96.6906 207.328C94.0942 208.481 91.332 209.689 89.1674 210.632ZM58.6948 180.796C53.5968 183.847 44.4394 185.708 37.3549 186.584C38.4643 182.463 38.3768 178.771 38.0583 175.724C40.377 176.612 43.1489 176.791 46.3515 176.259C48.5327 175.897 50.9142 175.206 53.4865 174.187C65.2761 169.515 77.9588 166.084 82.9835 164.798C83.0167 164.902 83.0475 165.003 83.0728 165.096C83.3869 166.272 84.3103 169.241 85.5706 173.194C73.7232 175.069 65.2853 176.853 58.6948 180.796ZM32.669 166.348C32.4356 166.822 32.2957 167.29 32.2169 167.737C31.5017 167.479 30.7243 167.24 29.8675 167.023C32.3117 165.973 32.6542 165.462 32.9191 165.065C33.6583 163.958 35.0344 161.9 31.676 139.887C31.2017 136.781 30.6652 133.53 30.1126 130.372C33.7014 129.885 40.2137 128.803 43.1243 127.057C44.4635 126.254 46.0084 125.397 47.6093 124.547L48.9504 127.101C47.1843 128.112 45.3018 129.245 43.6559 130.358C39.2965 133.305 35.7367 134.065 35.7052 134.071C34.9186 134.229 34.395 134.965 34.5115 135.746L38.399 161.802C35.4484 163.042 33.553 164.545 32.669 166.348ZM31.5454 187.122C30.2537 187.193 29.2065 187.207 28.4981 187.168C24.095 186.924 17.2143 190.314 14.3253 191.861C13.3299 191.305 11.6753 190.201 9.78297 188.216C8.06865 186.418 7.40584 178.534 7.74403 172.005C8.71298 171.532 10.9737 171.131 13.9095 170.966C14.3937 170.965 14.8988 170.945 15.4267 170.905C18.0582 170.837 21.0902 170.952 24.164 171.349C29.7067 172.065 31.9218 173.276 32.3894 173.742C32.8858 177.277 33.4883 181.875 31.5454 187.122ZM27.3795 194.179C26.5639 195.271 25.7212 196.399 24.9876 197.506C24.61 198.076 24.2601 198.639 23.9281 199.194C23.3028 198.48 22.6788 197.755 22.0604 197.017C21.3957 196.223 20.6793 195.56 19.9216 195.002C23.0145 193.574 26.3889 192.352 28.195 192.454C28.3318 192.461 28.4809 192.467 28.6429 192.471C28.2462 193.019 27.8181 193.593 27.3795 194.179ZM7.49455 160.606C7.13912 158.657 6.66419 156.464 6.10856 154.136L23.102 151.167C23.925 151.023 24.4732 150.251 24.3272 149.441C24.1812 148.632 23.3891 148.094 22.5735 148.236L5.39216 151.237C2.59801 140.273 -1.58583 127.427 -3.84591 122.797C-4.34487 121.775 -4.90974 120.933 -5.51464 120.232C0.907717 117.999 8.90764 113.4 18.0718 107.605C19.4947 109.629 20.6781 111.805 21.2947 114.008C21.7474 115.628 22.4133 118.603 23.1679 122.401L17.9153 123.984L17.1466 120.104C16.9864 119.296 16.1844 118.762 15.3725 118.927C14.5526 119.084 14.0179 119.867 14.1775 120.674L15.2678 126.177C15.3497 126.591 15.6066 126.951 15.9737 127.168C16.2848 127.352 16.6501 127.419 17.0037 127.36C17.0677 127.349 17.1318 127.334 17.1952 127.315L23.7389 125.343C24.5459 129.6 25.4138 134.577 26.2109 139.719C27.417 147.495 28.0281 152.887 28.293 156.474L7.49948 160.628C7.49824 160.62 7.49639 160.614 7.49455 160.606ZM2.40458 171.177C2.3165 172.639 2.12431 176.884 2.5247 181.263L2.12369 181.228L-1.02959 164.844L3.16349 164.465C3.68339 165.526 4.37453 166.492 5.22769 167.354C3.6298 168.151 2.43477 169.351 2.40458 171.177ZM11.9919 93.575L11.6716 93.3021C11.2108 92.9079 10.6608 92.6472 10.0263 92.5174L9.99364 91.1434C9.93389 88.6414 8.24852 87.1728 5.19073 84.5077C5.04905 84.3846 4.90429 84.2585 4.75583 84.1287L10.3411 79.8768L23.3496 97.8845C22.0499 98.7317 20.683 99.6224 19.2705 100.536C16.4548 97.3782 13.5849 94.9314 11.9919 93.575ZM2.47234 82.1028C1.21079 80.9592 -0.233722 79.6027 -1.87596 77.9527L6.44551 74.4848L8.58609 77.4482L2.47234 82.1028ZM28.3965 161.861C26.5965 162.701 21.7012 164.605 17.0794 165.371C16.3384 165.495 15.691 165.572 15.1181 165.618C14.6641 165.63 14.2132 165.647 13.7715 165.67C12.449 165.658 11.7671 165.434 11.4751 165.297C10.3632 164.775 9.48667 164.146 8.8331 163.401L28.4513 159.481C28.479 160.583 28.4531 161.36 28.3965 161.861ZM26.7216 102.035C28.7162 100.735 30.5999 99.506 32.3789 98.3654C36.1167 95.969 39.5109 94.2723 43.3571 92.3822C46.3934 97.6832 49.307 102.804 51.9232 107.454L42.1356 113.363L40.3246 109.46C39.9772 108.713 39.0791 108.383 38.3208 108.725C37.5606 109.067 37.2261 109.95 37.5736 110.698L40.0948 116.13C40.2747 116.518 40.6141 116.811 41.0287 116.935C41.2554 117.004 41.4925 117.018 41.7211 116.98C41.9108 116.948 42.0937 116.882 42.2607 116.781L53.3874 110.064C54.6859 112.384 55.8951 114.562 56.9903 116.557C53.6282 118.134 46.3977 121.605 41.5498 124.514C39.2706 125.882 33.3368 126.922 29.5884 127.434C28.423 121.026 27.2489 115.356 26.4789 112.604C25.696 109.802 24.2718 107.139 22.5907 104.717C23.9459 103.842 25.3227 102.947 26.7216 102.035ZM27.3142 81.5595L34.8262 77.5689C36.7876 80.9592 38.7624 84.3828 40.7084 87.7676C38.0768 89.0617 35.6363 90.2841 33.1298 91.7091L27.3142 81.5595ZM14.7152 59.5708L16.0809 59.1676C16.8755 58.9329 17.3307 58.1119 17.0998 57.3272L11.0649 36.8339C13.8602 41.5885 23.2597 57.5965 33.3281 74.9808L25.8278 78.9654L14.7152 59.5708ZM12.9763 10.5963C13.0865 9.68734 13.1937 8.83234 13.2948 8.02464C13.9853 2.51565 14.3647 -1.04624 13.6188 -4.49292C14.8384 -5.16116 16.5213 -5.85789 18.1833 -5.81241C18.9687 -5.79119 21.4758 -5.76997 24.9629 -5.74996L21.5485 13.1073C21.437 13.7271 21.8485 14.3213 22.4743 14.4456C23.1026 14.5705 23.7149 14.1788 23.8547 13.5646L26.0637 3.88972L39.3211 4.88236C39.9414 11.7879 42.2416 18.9505 44.6359 25.158L13.7056 28.9697C12.8167 25.2756 11.9543 19.0657 12.9763 10.5963ZM27.3505 -5.73722C30.8789 -5.71964 35.0862 -5.70326 39.4166 -5.6881C39.3433 -3.58759 39.2694 -1.74843 39.1967 -0.287657C39.1505 0.647386 39.1487 1.59456 39.1782 2.549L26.0292 1.56424L27.3505 -5.73722ZM44.5676 -0.0287323C44.6433 -1.54893 44.7203 -3.47117 44.7967 -5.67052C54.7826 -5.63899 64.2012 -5.61776 66.2426 -5.61352L73.1337 -2.30327L71.6867 1.05973L44.5368 1.07307C44.5405 0.703173 44.5497 0.335705 44.5676 -0.0287323ZM75.2515 -1.28637L78.2532 0.155609L76.4367 2.23186C76.1625 2.54415 76.0794 2.9765 76.2161 3.36641L78.4516 9.71584C78.4768 9.78861 78.5101 9.85834 78.5495 9.92444L79.7809 11.9807L76.0227 13.4208C74.9078 8.07012 73.9604 3.59744 73.693 2.33556L75.2515 -1.28637ZM80.4394 1.20526L87.4938 4.59373L85.1745 5.72706C84.7661 5.92716 84.5111 6.34193 84.5222 6.79186L84.6029 10.1336L82.0028 11.1293L80.6359 8.84811L78.661 3.23846L80.4394 1.20526ZM92.7747 17.3557L86.9739 19.4283L83.2138 13.151L86.2242 11.9971C86.6856 11.8206 86.9856 11.3779 86.9739 10.891L86.8919 7.47344L89.5543 6.17214L92.7747 17.3557ZM110.322 2.93769C110.468 3.00136 110.63 3.03653 110.799 3.03593L127.16 2.9856C127.801 2.98196 128.321 2.47745 128.332 1.84742C128.343 1.21678 127.84 0.693471 127.2 0.669822C127.155 0.668609 124.432 0.570982 120.47 0.535811L119.066 -7.50058L135.921 -7.57517L137.075 -1.61624C137.197 -0.988636 137.803 -0.572657 138.451 -0.695753C139.089 -0.815817 139.507 -1.4222 139.386 -2.05041L138.408 -7.10461C139.355 -4.21823 140.323 -1.45252 141.286 1.17433C135.6 5.31593 112.109 22.3704 99.7046 30.5014L96.4183 19.0911L104.985 18.8916C105.637 18.8771 106.149 18.3459 106.133 17.7062C106.117 17.067 105.578 16.5613 104.929 16.5765L95.7561 16.7899L92.349 4.95877C95.4992 3.88001 101.68 3.18389 110.322 2.93769ZM123.654 17.5673C128.667 14.0005 133.42 10.5775 137.112 7.907L139.795 12.0638L135.143 14.8386C135.02 14.9125 134.912 15.0077 134.824 15.1199L127.964 23.8373L123.654 17.5673ZM142.373 4.0874C144.634 10.0524 146.812 15.2145 148.563 19.3664C149.301 21.1165 149.941 22.6342 150.462 23.9179C143.247 26.5939 134.688 29.9599 126.237 33.7316L118.157 21.4597C119.355 20.6162 120.554 19.7679 121.746 18.9232L126.926 26.4593C127.137 26.7667 127.485 26.9559 127.862 26.9674C128.24 26.9802 128.599 26.8128 128.829 26.5193L136.55 16.708L141.057 14.0187L141.858 15.26C142.205 15.796 142.926 15.9573 143.473 15.6214C144.021 15.2861 144.192 14.5784 143.855 14.0357L142.479 11.8133C142.413 11.7078 142.334 11.6162 142.245 11.5398L139.011 6.53112C140.354 5.55727 141.492 4.72956 142.373 4.0874ZM148.794 -10.1535C148.963 -10.102 149.143 -10.0886 149.321 -10.1153L156.463 -11.1935C156.676 -10.1614 156.937 -9.0984 157.202 -8.02268C157.519 -6.73351 157.847 -5.40128 158.132 -4.01206C158.4 -2.7047 158.848 -1.11355 159.423 0.672853L152.15 5.57243C151.615 5.93383 151.477 6.65421 151.844 7.18237C152.211 7.71054 152.944 7.84515 153.48 7.48375L160.192 2.96134C160.553 3.99826 160.947 5.08308 161.366 6.20185C158.427 8.20777 155.002 10.184 151.165 11.6884C148.751 5.84045 145.939 -1.30941 143.31 -9.39977L148.794 -10.1535ZM162.216 8.43516C163.453 11.6332 164.847 15.0302 166.25 18.3623C163.905 19.1396 160.144 20.4137 155.506 22.0776C154.961 20.7308 154.297 19.1578 153.529 17.3369C153.066 16.2393 152.572 15.069 152.056 13.832C155.872 12.3342 159.274 10.4059 162.216 8.43516ZM166.826 1.16524C166.875 1.15675 166.923 1.14523 166.969 1.13067L168.589 0.627981C167.211 1.78617 165.555 3.15842 163.633 4.58584C163.291 3.66353 162.97 2.76912 162.672 1.91048L166.826 1.16524ZM159.082 33.9851C158.466 31.3837 157.861 29.0528 157.28 27.099C162.165 25.3399 166.069 24.0156 168.335 23.2624C169.163 25.1877 169.966 27.039 170.715 28.7617L159.082 33.9851ZM161.526 45.256C160.887 42.0973 160.246 39.0714 159.616 36.2906L171.639 30.8926C173.33 34.8037 174.586 38.607 175.683 43.1664L161.526 45.256ZM163.427 55.0199C162.972 52.6059 162.51 50.204 162.046 47.8567L176.27 45.7568C176.719 47.8397 177.147 50.0882 177.577 52.5768L163.427 55.0199ZM167.819 79.234C167.499 77.4531 167.162 75.5666 166.81 73.5995C166.327 70.8969 165.816 68.0371 165.285 65.1035L172.595 62.8562C173.216 62.6652 173.562 62.0158 173.368 61.4051C173.174 60.7945 172.515 60.4549 171.894 60.6447L164.867 62.8053C164.561 61.1262 164.25 59.4308 163.934 57.7329L178.029 55.2704C178.734 59.5987 179.464 64.6135 180.311 70.6106C180.616 72.7718 180.908 74.8038 181.188 76.7157L167.819 79.234ZM169.066 86.2396C168.853 84.9722 168.65 83.8025 168.458 82.7553C168.423 82.5588 168.386 82.3563 168.349 82.1562L181.624 79.6573C181.851 81.1811 182.069 82.6189 182.277 83.9662C177.644 84.7454 172.213 85.6896 169.066 86.2396ZM160.569 124.839L162.678 98.5322C163.581 98.5315 164.54 98.5315 165.546 98.5334C166.186 102.814 166.844 107.364 167.468 111.721C167.945 115.044 168.429 118.455 168.915 121.874C169.079 123.023 169.243 124.177 169.407 125.331C166.883 125.194 163.279 124.997 160.569 124.839ZM158.267 127.685C161.05 127.859 166.62 128.162 169.836 128.335C170.376 132.126 170.915 135.888 171.44 139.493L156.319 140.586L156.022 128.193L158.267 127.685ZM145.888 98.1689L145.964 101.338C145.979 101.977 146.518 102.483 147.168 102.468C147.818 102.454 148.331 101.922 148.315 101.283L148.243 98.2508L153.691 98.44L154.236 109.047L141.845 107.039L141.629 98.0216L145.888 98.1689ZM138.833 75.0397L141.781 74.6019L143.759 94.4215C143.772 94.5506 143.807 94.6719 143.85 94.7877L141.547 94.7077C141.545 94.6659 141.54 94.624 141.534 94.5822L138.833 75.0397ZM112.393 144.638L112.594 158.79C112.607 159.611 113.293 160.269 114.128 160.258C114.207 160.256 114.285 160.249 114.36 160.237C115.084 160.116 115.63 159.492 115.619 158.748L115.41 144.084L122.221 142.833L122.609 150.639C122.649 151.46 123.358 152.094 124.193 152.054C124.254 152.051 124.313 152.044 124.372 152.034C125.117 151.91 125.668 151.255 125.629 150.494L125.222 142.281L133.139 140.827L134.956 158.804C135.038 159.622 135.779 160.219 136.61 160.138C136.645 160.135 136.68 160.13 136.713 160.124C137.491 159.995 138.044 159.293 137.965 158.509L136.123 140.279L139.602 139.639L140.228 165.712C131.009 166.804 119.724 168.189 110.094 169.517L108.845 155.948C108.844 155.934 108.842 155.92 108.84 155.906L107.583 145.522L112.393 144.638ZM106.946 140.254L106.87 139.627C106.866 139.598 106.861 139.568 106.856 139.539C106.676 138.557 106.432 136.896 106.264 135.009L126.871 132.885C127.274 132.844 127.641 132.646 127.893 132.336C128.146 132.026 128.262 131.629 128.215 131.234L127.012 120.942L139.125 119.793L139.288 126.553C139.288 126.559 139.288 126.564 139.288 126.569C139.288 126.575 139.288 126.58 139.288 126.586L139.476 134.409C139.207 134.375 138.927 134.379 138.647 134.429L106.946 140.254ZM104.634 146.325L105.834 156.237L107.095 169.937C104.889 170.25 102.799 170.558 100.877 170.856C98.3106 171.254 95.8627 171.623 93.528 171.975C92.649 172.108 91.7897 172.237 90.9427 172.365C89.5863 168.125 88.5909 164.937 88.2736 163.749C88.05 162.915 87.6324 161.865 87.0558 160.631C87.0336 160.58 87.0108 160.529 86.9856 160.48C86.0191 158.431 84.6275 155.881 82.957 152.945L104.634 146.325ZM80.2429 148.231C79.9595 147.743 79.6725 147.248 79.3805 146.746C75.2792 139.682 70.6309 131.676 67.2583 124.568C66.3596 122.673 64.8498 119.79 62.9002 116.2L86.9055 96.77C87.1174 96.599 87.2677 96.3795 87.3582 96.1406L91.417 96.2807L94.5444 129.285L83.6869 132.71C82.8917 132.961 82.4531 133.799 82.7081 134.582C82.9631 135.365 83.815 135.796 84.6097 135.546L94.8327 132.322L95.8873 143.454L80.2429 148.231ZM53.943 143.549L39.3649 147.785L37.6974 136.611C39.3027 136.102 42.1369 134.997 45.3677 132.812C46.8554 131.807 48.5703 130.77 50.2113 129.827L53.943 143.549ZM63.9024 143.76L65.5268 146.954L58.5802 149.086L57.6279 145.584L63.9024 143.76ZM56.8456 142.706L52.9297 128.307C53.8833 127.786 54.7284 127.339 55.377 126.999L62.5269 141.055L56.8456 142.706ZM40.3924 154.671L39.809 150.761L54.7259 146.426L55.6906 149.974L40.3924 154.671ZM56.4735 152.853L57.3698 156.148C52.5404 157.72 47.7486 159.167 44.1037 160.02C43.1033 160.255 42.1744 160.505 41.3022 160.769L40.8371 157.654L56.4735 152.853ZM58.4244 119.186C60.1954 122.455 61.5635 125.075 62.3858 126.808C65.8526 134.115 70.5595 142.221 74.7119 149.373C74.8332 149.582 74.9552 149.792 75.0759 150C71.7908 151.2 66.1557 153.224 60.2434 155.2L59.3638 151.965L68.1263 149.275C68.5501 149.145 68.8944 148.838 69.0681 148.436C69.2412 148.034 69.2271 147.578 69.0281 147.187L57.3926 124.311C57.2121 123.956 56.8955 123.687 56.5123 123.562C56.1292 123.439 55.7115 123.471 55.353 123.651C55.22 123.718 53.6763 124.495 51.5844 125.633L50.2846 123.157C53.4939 121.521 56.5961 120.043 58.4244 119.186ZM64.0453 103.63L65.1806 105.3C65.6457 105.984 66.5857 106.166 67.2787 105.709C67.9729 105.251 68.1589 104.327 67.6939 103.644L66.6251 102.072L72.8929 98.289C73.6043 97.8591 73.8273 96.9422 73.3912 96.2412C73.207 95.9453 72.9323 95.741 72.6261 95.6294L83.103 95.9926L61.4397 113.526C60.3771 111.594 59.2178 109.505 57.979 107.292L64.0453 103.63ZM59.3243 83.888L64.3952 94.4488C64.6632 95.0079 65.2274 95.3729 65.8551 95.3947L71.6763 95.5966C71.5512 95.633 71.428 95.6797 71.311 95.7501L56.5148 104.682C53.9547 100.131 51.1211 95.1491 48.1717 89.9991C51.4334 88.3552 55.0438 86.4421 59.3243 83.888ZM44.0772 53.678L53.4015 72.1963C53.7046 72.7991 54.3674 73.1101 55.0074 73.004C55.1504 72.9804 55.292 72.9361 55.4282 72.87C56.1766 72.5044 56.4827 71.6106 56.1119 70.8744L47.1763 53.1268L56.2591 51.512C57.1708 53.014 58.1835 54.5791 59.3077 56.1878C64.981 64.3067 66.7686 70.3002 67.2713 72.4668C57.7985 78.9351 51.1353 82.5612 45.5248 85.3852C39.8195 75.4587 33.864 65.2041 28.7334 56.4055L44.0772 53.678ZM47.8323 32.9785C48.2247 33.9081 48.5943 34.7831 48.9294 35.5951C49.2251 36.6453 50.7793 41.7977 54.6625 48.7699L44.7074 50.54C44.6748 50.5442 44.6433 50.5503 44.6113 50.5576L27.1337 53.6647C20.6491 42.5569 15.7778 34.2804 14.9462 32.8682C14.8637 32.6832 14.629 32.1284 14.3364 31.2261L45.5125 27.3846C46.3176 29.3887 47.111 31.2709 47.8323 32.9785ZM48.4896 20.1165C46.5683 14.7234 44.9347 8.86024 44.5996 3.38945L71.5106 3.37611C71.8875 5.15766 72.769 9.32776 73.7786 14.1776L48.4896 20.1165ZM52.9174 31.2309C52.8779 31.1357 52.8385 31.0429 52.7985 30.9471C51.7254 28.4058 50.4836 25.4636 49.2935 22.3092L74.2505 16.4479C74.723 18.7243 75.209 21.0849 75.6753 23.374L52.9174 31.2309ZM76.7909 28.9109C77.1087 30.5124 77.5165 31.6245 77.8904 32.3843L72.8842 34.0664L56.1132 39.5869C54.668 36.2239 54.0964 34.1264 54.0865 34.0864C54.0563 33.9724 54.0188 33.8608 53.9738 33.7529C53.9233 33.6292 53.8697 33.5006 53.8173 33.3745L76.1404 25.6674C76.3671 26.7867 76.5851 27.8764 76.7909 28.9109ZM83.2336 20.7641L77.9175 22.5997C77.4524 20.3197 76.9689 17.976 76.5013 15.7221L80.9919 14.0018L84.7243 20.2317L83.2336 20.7641ZM80.1413 31.6281C79.8536 31.1127 79.4316 30.1406 79.0996 28.467C78.8748 27.3307 78.6333 26.13 78.3832 24.8924L84.0239 22.9459L85.5731 22.3923L87.3194 29.2159L80.1413 31.6281ZM89.0116 36.1402L60.2027 47.6603C58.9375 45.4918 57.9039 43.4847 57.0704 41.7141L73.6376 36.2609L87.5671 31.5802L89.0116 36.1402ZM93.1233 34.4957L91.284 35.2312L87.7962 21.5979L93.4184 19.5896L97.0528 32.2096C95.3569 33.2775 94.0073 34.0694 93.1233 34.4957ZM104.094 45.0947C100.924 47.0399 98.0531 49.0131 95.6261 50.9899C86.226 58.6449 78.4793 64.5456 71.9491 69.2008C70.9087 65.8172 68.6326 60.1918 63.7385 53.188C63.04 52.1875 62.3871 51.2052 61.7772 50.2453L94.3091 37.2353C94.3399 37.2232 94.3701 37.2105 94.3997 37.1959C95.2615 36.7848 96.5384 36.0468 98.1271 35.0578L104.094 45.0947ZM106.681 43.5514L100.669 33.4382C104.903 30.6882 110.486 26.8468 116.242 22.8077L124.075 34.7055C117.966 37.49 111.985 40.4746 106.681 43.5514ZM138.469 72.4068L135.881 53.681C136.824 53.3791 137.737 53.0213 138.603 52.5986C138.908 52.4501 139.223 52.3082 139.541 52.1711L141.515 71.9423L138.469 72.4068ZM138.6 97.9167L138.85 108.313C138.85 108.334 138.85 108.356 138.852 108.377L139.054 116.809L135.363 117.159L134.027 97.7584L138.6 97.9167ZM129.003 94.2729C129.048 94.1043 129.062 93.9255 129.043 93.7417L124.906 55.1861C127.52 55.16 130.287 54.9654 132.932 54.4372L138.483 94.6016L129.003 94.2729ZM124.911 97.4419L130.988 97.6529L132.35 117.443L126.621 117.987C126.585 117.893 126.54 117.804 126.486 117.722L124.911 97.4419ZM106.795 125.542C107.014 124.983 107.28 124.365 107.56 123.712C107.694 123.401 107.833 123.079 107.973 122.746L124.001 121.227L125.036 130.08L106.086 132.034C106.017 129.587 106.168 127.146 106.795 125.542ZM96.5661 70.453L90.9686 61.5464C93.5237 59.5344 96.2144 57.3812 99.0541 55.0684C100.634 53.7817 102.426 52.4907 104.385 51.204C105.09 52.6126 105.945 54.8574 106.394 58.0658C106.609 59.6005 107.4 62.1783 108.441 65.1253L96.5661 70.453ZM109.466 67.9377C111.462 73.2702 113.895 79.0794 115.132 81.9809L101.36 83.5023L98.2213 73.1853C98.2034 73.1259 98.1819 73.0683 98.1566 73.0119L109.466 67.9377ZM118.266 81.6347C116.506 77.5216 110.022 62.1583 109.391 57.6595C109.322 57.1623 109.242 56.6881 109.156 56.2303C109.613 55.7209 111.024 54.4918 113.897 54.6373C114.519 54.6688 115.302 54.7307 116.208 54.8016C117.766 54.9235 119.712 55.0757 121.86 55.1485L124.626 80.9319L118.266 81.6347ZM114.02 93.7539L112.32 85.2875L117.459 84.7206C117.474 84.7188 117.488 84.7175 117.503 84.7151L124.944 83.8929L126.034 94.0552C126.038 94.0952 126.051 94.1322 126.058 94.171L114.02 93.7539ZM104.376 93.4191L102.241 86.4009L109.302 85.621L110.914 93.6459L110.103 93.618C110.055 93.6138 110.007 93.6132 109.958 93.6132L104.376 93.4191ZM111.638 96.9816L121.869 97.3364L123.496 118.283L109.2 119.638C110.907 114.877 112.463 108.054 111.638 96.9816ZM66.6288 91.3574L62.1998 82.1356C65.618 80.0108 69.4451 77.4858 73.8187 74.4011L78.0352 82.9663L66.6288 91.3574ZM79.3786 85.6956L82.8128 92.6721L70.4763 92.2446L79.3786 85.6956ZM90.6939 84.6866C90.307 83.9577 89.3941 83.6752 88.6537 84.0542L83.2878 86.8077L76.3067 72.6275C80.0051 69.9655 84.0738 66.9208 88.5841 63.4123L95.381 74.2283L98.8176 85.5252C98.8225 85.5416 98.8268 85.5574 98.8324 85.5737L101.185 93.3088L86.2328 92.7903L84.6066 89.4886L90.0514 86.6949C90.7918 86.3148 91.0795 85.4155 90.6939 84.6866ZM98.849 124.473C99.4662 125.026 100.423 124.982 100.985 124.374L103.797 121.332L105.062 121.879C104.965 122.11 104.868 122.334 104.774 122.553C104.484 123.229 104.209 123.868 103.973 124.473C102.029 129.442 103.719 139.176 103.871 140.023L103.987 140.981L98.8404 142.553L94.465 96.3868L108.596 96.8761C109.46 107.929 107.86 114.545 106.176 119.108L104.017 118.175C103.422 117.919 102.727 118.064 102.291 118.537L98.748 122.37C98.1856 122.978 98.2312 123.92 98.849 124.473ZM152.334 73.0337L156.427 72.4261C156.433 72.4249 156.44 72.4237 156.446 72.4231C156.799 72.3649 157.105 72.1224 157.312 71.8349C157.523 71.5414 157.595 71.1291 157.527 70.7762L153.665 50.6376C153.527 49.919 152.81 49.4539 152.095 49.5855C151.365 49.7207 150.886 50.4187 151.024 51.1373L154.63 69.9424L151.803 70.3735L147.707 49.8335C151.396 49.1507 154.344 48.9822 154.396 48.9791C154.439 48.9767 154.481 48.9725 154.523 48.967L156.726 48.6414C158.414 57.1817 160.088 66.5394 161.514 74.5163C162.11 77.849 162.665 80.958 163.166 83.694C163.708 86.6507 164.358 90.7007 165.047 95.2243C162.096 95.2195 159.585 95.2292 157.679 95.2352L156.854 95.2383L156.554 95.2286L156.49 93.9728C156.488 93.9267 156.485 93.88 156.478 93.8327V93.8315C156.478 93.8303 156.478 93.829 156.478 93.8278C156.472 93.7884 156.466 93.749 156.457 93.7108L152.334 73.0337ZM144.509 71.4856L142.474 51.0978C143.23 50.8644 143.994 50.6552 144.751 50.4684L148.812 70.8295L144.509 71.4856ZM146.77 94.1304L144.776 74.1568L149.34 73.4782L153.473 94.2032L153.52 95.1231L146.642 94.8848C146.746 94.6549 146.796 94.3984 146.77 94.1304ZM137.599 38.5366C137.1 38.7446 136.804 39.2655 136.895 39.7967C136.955 40.1454 137.173 40.4485 137.489 40.6189C137.723 40.7457 137.992 40.7887 138.25 40.7463C138.32 40.7342 138.388 40.7172 138.455 40.6929C139.08 40.4734 144.615 38.5081 147.465 36.809C148.021 36.4773 148.199 35.7654 147.862 35.2185C147.526 34.6709 146.8 34.4963 146.247 34.8274C145.672 35.1706 144.965 35.5296 144.203 35.8843L142.63 32.6347C145.99 31.3025 149.226 30.0661 152.23 28.9479C153.468 33.1732 154.834 39.2625 156.206 46.0412L154.186 46.3402C153.239 46.3953 143.999 47.0096 137.408 50.2277C133.539 52.116 128.467 52.5677 123.937 52.5423C123.683 52.4125 123.389 52.3512 123.083 52.3828C122.913 52.401 122.754 52.4525 122.605 52.5216C120.251 52.4622 118.099 52.2948 116.421 52.1627C115.495 52.0905 114.695 52.0274 114.035 51.9941C111.442 51.8631 109.634 52.5871 108.462 53.3621C107.984 51.7728 107.437 50.52 106.944 49.5819C116.443 43.7649 129.002 38.1206 140.447 33.5079L142 36.7163L137.599 38.536V38.5366ZM51.638 166.647L52.2681 168.965C52.0051 169.068 51.7414 169.172 51.4784 169.276C44.8528 171.9 41.3656 171.456 39.6076 170.62C38.1951 169.949 37.6888 168.897 37.5606 168.57C37.8415 168.158 39.2663 166.594 45.3474 165.17C55.0154 162.908 71.7915 156.862 77.7697 154.664C78.8575 156.566 79.8585 158.349 80.695 159.916C75.6229 161.237 65.3568 164.075 55.106 167.885L54.5602 165.877C54.3446 165.083 53.5174 164.612 52.7085 164.824C51.9016 165.036 51.4224 165.852 51.638 166.647ZM149.124 164.674C147.347 164.878 145.372 165.108 143.246 165.356L142.348 127.987L146.563 127.89L149.124 164.674ZM147.955 124.878C147.944 124.879 147.933 124.879 147.922 124.879L142.277 125.011L142.112 118.144C142.112 118.131 142.111 118.118 142.111 118.106L141.918 110.069L155.595 112.286C156.046 112.358 156.507 112.227 156.849 111.927C157.19 111.626 157.374 111.19 157.351 110.741L156.725 98.5449L156.769 98.5461C156.789 98.5467 156.811 98.5473 156.833 98.5473L157.691 98.5443C158.469 98.5419 159.349 98.5388 160.318 98.5358L158.22 124.698C158.005 124.684 157.805 124.671 157.633 124.66C157.587 124.657 157.541 124.656 157.494 124.657L147.955 124.878ZM173.861 -0.601764C173.924 0.118012 174.204 0.692863 174.706 1.11551C175.707 1.95839 177.35 1.9602 179.726 1.12158C180.591 0.816566 181.385 0.459407 181.916 0.20412L193.79 8.71774C182.892 12.5719 173.58 15.8579 168.812 17.5261C167.309 13.9569 165.799 10.2707 164.486 6.84765C166.965 5.04002 169.048 3.29061 170.681 1.91473C171.865 0.918438 173.177 -0.185785 173.861 -0.601764ZM176.321 -1.72115C178.902 -2.98909 184.016 -5.49285 189.057 -7.90504C194.175 -10.3548 197.956 -12.1085 200.297 -13.1175C200.472 -13.1927 200.615 -13.3085 200.728 -13.4443L209.154 3.28151C204.84 4.80839 200.563 6.32252 196.467 7.77117L187.396 0.598875L182.717 -2.08679C182.35 -2.35057 181.861 -2.3815 181.461 -2.16744C179.154 -0.929211 176.659 -0.294327 176.239 -0.640572C176.237 -0.642997 176.102 -0.901317 176.321 -1.72115ZM-5.39637 67.0057C-5.01446 67.1409 -4.59312 67.1197 -4.22598 66.9469L9.80822 60.3058C10.5604 59.9492 10.8776 59.0596 10.5154 58.3186C10.1538 57.5777 9.24952 57.2654 8.49739 57.6219L-4.14898 63.6063C-4.65595 62.5227 -5.3896 60.9594 -6.18793 59.2846L-1.03636 56.947C-0.658142 56.776 -0.369856 56.4589 -0.236186 56.0708C-0.103131 55.6833 -0.138242 55.2594 -0.332897 54.8974L-7.12424 42.2816V48.6414L-3.75413 54.9017L-7.12424 56.4304V64.3655C-6.81809 65.0186 -6.52611 65.6456 -6.25692 66.2241C-6.08875 66.5873 -5.77829 66.8693 -5.39637 67.0057ZM227.243 -3.12492C222.329 -1.384 217.173 0.442429 212.02 2.26703L203.981 -13.6887H195.892C193.776 -12.7179 191.149 -11.4821 188.028 -9.98797C183.059 -7.60973 178.018 -5.14297 175.396 -3.85501C175.28 -3.8544 175.162 -3.83803 175.048 -3.80286L166.332 -1.10021L161.929 -0.310699C161.41 -1.93035 161.008 -3.36808 160.768 -4.53719C160.472 -5.97492 160.138 -7.33261 159.815 -8.64543C159.31 -10.6986 158.937 -12.3529 158.765 -13.6887H156.061C156.068 -13.6238 156.072 -13.5596 156.08 -13.4941L150.286 -12.6973L150.261 -13.6887H147.907L147.939 -12.3747L142.595 -11.6398C142.383 -12.3159 142.173 -13.0005 141.964 -13.6887H136.354C136.756 -12.3298 137.164 -10.9909 137.579 -9.67689C137.383 -9.81636 137.145 -9.90065 136.889 -9.89943L117.665 -9.81818C117.32 -9.81636 116.99 -9.67204 116.767 -9.41129C116.545 -9.15055 116.448 -8.82128 116.507 -8.48535L118.081 0.523684C116.178 0.521258 114.094 0.535811 111.941 0.58129L111.883 -1.85455L115.869 -2.10317C116.518 -2.14076 117.01 -2.69378 116.97 -3.3317C116.928 -3.97022 116.369 -4.45472 115.72 -4.4147L108.591 -3.97022C107.963 -3.93202 107.478 -3.41417 107.489 -2.79566C107.499 -2.17775 108.001 -1.67627 108.629 -1.65687L109.535 -1.62958L109.589 0.643141C100.583 0.925715 94.3806 1.69218 91.1405 2.92375C91.1004 2.93891 91.0555 2.95528 91.0129 2.97044L82.0995 -1.31063L86.2741 -9.54712C88.544 -9.1651 90.7992 -8.89162 92.9188 -8.79582C107.849 -8.11727 111.044 -8.28585 111.915 -9.79635C112.243 -10.3627 112.687 -11.9272 112.856 -13.6887H110.491C110.376 -12.5887 110.156 -11.5852 109.947 -11.0976C108.785 -10.6313 103.793 -10.695 99.0406 -10.8599L99.2371 -13.6887H96.5421L96.353 -10.9624C95.145 -11.0128 94.0098 -11.0643 93.0272 -11.1092C91.1066 -11.1965 89.0676 -11.4366 87.0077 -11.7719C87.1137 -12.3286 87.2258 -12.989 87.3176 -13.6887H84.9343C84.8666 -13.1994 84.7859 -12.6943 84.6898 -12.1861C82.4691 -12.6191 80.2663 -13.1418 78.2015 -13.6887H70.119C73.5698 -12.536 78.6456 -11.034 83.8699 -9.9916L79.9854 -2.32632L67.4647 -8.33921L67.5996 -13.6887H65.9192L65.791 -8.59207C63.133 -8.59814 54.2756 -8.61875 44.8947 -8.64847C44.9452 -10.2426 44.9944 -11.9357 45.0431 -13.6887H39.6636C39.615 -11.9393 39.5651 -10.2523 39.5152 -8.66605C35.364 -8.68 31.3261 -8.69637 27.8895 -8.71274L28.7907 -13.6887H26.4007L25.5019 -8.72487C21.7653 -8.74549 19.0685 -8.76732 18.2677 -8.78915C16.209 -8.84433 14.2323 -8.14456 12.7145 -7.3884C11.9439 -9.28032 10.7815 -11.2862 9.10353 -13.6887H2.47357C5.26033 -10.0528 6.8496 -7.57092 7.72739 -5.37521C9.11954 -1.89154 8.73146 1.20526 7.95778 7.37642C7.85552 8.1914 7.7471 9.05428 7.63623 9.97234C6.46584 19.6727 7.55307 26.7297 8.63845 30.8859L-7.12424 32.0841V34.4072L6.9149 33.3399C6.92414 33.4278 6.93892 33.5158 6.96479 33.6037L9.00127 40.5219L5.22584 41.232C5.20859 41.235 5.19134 41.2387 5.17348 41.2417L-1.20206 42.4411L-5.6286 35.3295C-5.952 34.8098 -6.54767 34.5557 -7.12424 34.6339V38.6264L-3.23485 44.8745C-2.90652 45.4027 -2.27574 45.675 -1.6616 45.5591L4.51929 44.3967L6.96541 50.7261L1.59024 53.5191C0.852277 53.903 0.56892 54.8041 0.958844 55.5311C1.34877 56.2582 2.26352 56.5359 3.00271 56.1526L9.56059 52.7448C10.2363 52.3937 10.54 51.6011 10.269 50.8983L7.53643 43.8291L9.84703 43.3944L13.7765 56.739L12.0332 57.2544C11.5928 57.3836 11.2367 57.7044 11.0649 58.124C10.893 58.5436 10.9244 59.0178 11.1499 59.4114L30.5377 93.2463C30.1749 93.4701 29.8139 93.6926 29.4443 93.9297C28.2961 94.6659 27.1041 95.439 25.874 96.24L8.20664 71.7852C7.79515 71.2158 7.03686 71.0042 6.38452 71.2771L-4.11018 75.6509C-5.05819 74.6491 -6.06226 73.5577 -7.12424 72.3667V76.8261C-6.92342 77.0407 -6.72199 77.2584 -6.52672 77.4664L-7.12424 78.145V82.6928L-4.43419 79.6367C-1.20206 82.9135 1.30318 85.0971 3.18566 86.7374C6.03833 89.2236 6.942 90.0652 6.9691 91.2143L7.00545 92.7212C3.72096 93.5938 -1.82299 96.4365 -7.12424 99.58V105.833C-1.24272 102.17 5.72787 98.3248 8.68773 97.7608C10.0023 98.8826 12.3498 100.913 14.6949 103.46C7.14836 108.222 -1.02404 113.016 -7.12424 115.202V128.861C-4.16069 136.702 0.433401 151.863 2.20192 161.543C2.20315 161.549 2.205 161.555 2.20623 161.561L-1.59569 161.905L-7.12424 133.181V149.176L-4.62145 162.179L-7.12424 162.404V165.395L-4.05535 165.118L-0.635966 182.884C-0.510303 183.537 0.0391645 184.029 0.711215 184.09L2.90662 184.289C3.41789 187.375 4.31602 190.217 5.86093 191.839C6.318 192.317 6.76336 192.753 7.19887 193.156C2.67254 194.023 -2.21414 195.883 -7.02937 197.716C-7.06141 197.729 -7.09282 197.741 -7.12424 197.753V203.426C-6.44356 203.169 -5.76474 202.911 -5.08961 202.654C4.61908 198.956 13.7894 195.464 17.9122 200.385C19.0525 201.746 20.205 203.065 21.3532 204.336C18.9366 210.299 19.0444 214.877 19.3087 217.021H24.7504C24.7504 217.019 24.7498 217.018 24.7492 217.016C24.7054 216.84 24.079 214.148 25.1754 209.8C25.5161 210.137 26.0058 210.305 26.4955 210.223C26.5855 210.208 26.6754 210.185 26.7635 210.153L26.8454 210.124C29.5582 212.85 32.0666 215.191 34.1049 217.021H42.2607C41.1519 216.108 37.2397 212.826 32.4189 208.123L36.3151 206.724C37.0999 206.442 37.5046 205.587 37.2181 204.814C36.9317 204.042 36.0619 203.642 35.2784 203.926L30.0769 205.794C29.3045 205.011 28.5184 204.199 27.7238 203.359C28.2332 202.407 28.8154 201.42 29.4929 200.397C30.1422 199.415 30.9399 198.349 31.7111 197.317C32.9265 195.69 34.0741 194.155 34.8706 192.706C34.9753 192.514 35.0769 192.325 35.1755 192.135C39.0741 191.764 43.9405 191.073 48.6763 189.975L55.9296 217.021H59.0576L51.6065 189.235C52.57 188.971 53.5161 188.689 54.4383 188.387L63.101 217.021H66.2574L57.2835 187.359C58.818 186.745 60.2391 186.067 61.4877 185.32C65.3783 182.993 70.2422 181.479 76.42 180.196L79.6386 190.421C79.6417 190.432 79.6454 190.442 79.6485 190.452L86.3807 211.841C85.6735 212.147 85.2478 212.331 85.2251 212.34C85.161 212.368 85.0975 212.398 85.0359 212.431C81.6289 214.224 78.3906 215.753 75.3236 217.021H87.7734C89.1643 216.42 93.9087 214.367 98.3599 212.395C99.1398 214.76 99.6498 216.304 99.7551 216.623C99.8007 216.759 99.8562 216.89 99.9227 217.017C99.9233 217.019 99.9245 217.02 99.9252 217.021H106.419C105.799 216.311 105.248 215.588 104.798 214.768C104.61 214.2 104.065 212.552 103.285 210.182C103.832 209.931 104.342 209.695 104.799 209.481C110.358 206.87 116.579 205.523 123.694 205.397L124.195 217.021H146.633C151.805 216.178 156.106 215.329 157.065 215.035C160.692 213.923 205.594 207.251 209.077 207.691C209.318 207.771 209.57 207.788 209.809 207.747C210.274 207.67 210.696 207.381 210.919 206.932C211.285 206.193 210.973 205.302 210.222 204.941C209.594 204.639 208.425 204.079 183.269 207.748C171.654 209.442 157.992 211.632 156.166 212.191C152.997 213.164 132.5 216.488 127.184 216.109L126.723 205.417C127.478 205.44 128.24 205.47 129.016 205.518C131.248 205.654 133.752 205.71 136.362 205.709L136.593 213.186C136.619 214.008 137.316 214.654 138.151 214.629C138.222 214.627 138.291 214.62 138.358 214.609C139.092 214.487 139.64 213.848 139.617 213.095L139.388 205.685C150.099 205.524 161.505 204.601 162.875 204.487C167.837 204.457 177.689 203.51 187.247 202.037C187.26 202.036 187.273 202.035 187.286 202.033C187.294 202.032 187.3 202.03 187.308 202.029C193.254 201.111 199.082 199.99 203.544 198.76C208.556 197.377 216.999 195.513 227.243 195.063V189.768C218.763 190.117 210.186 191.429 202.093 193.662C198.463 194.664 193.755 195.607 188.804 196.422C187.603 191.997 184.885 181.735 182.395 170.573C188.481 170.406 195.358 169.857 203.962 168.927C210.281 168.243 218.668 167.961 227.243 167.897V162.592C218.523 162.66 209.942 162.954 203.375 163.664C194.446 164.63 187.436 165.175 181.252 165.301C180.243 160.499 179.325 155.675 178.63 151.205C177.813 145.96 176.902 139.73 175.965 133.215C177.935 133.021 182.133 132.828 186.816 133.941C190.529 134.824 199.122 135.879 207.247 136.45C212.512 136.821 221.531 137.259 227.243 136.458V134.119C217.626 135.612 194.12 133.294 187.368 131.689C182.265 130.476 177.754 130.701 175.635 130.918C175.174 127.7 174.709 124.433 174.25 121.198L177.033 121.133C177.099 121.132 177.163 121.126 177.226 121.115C177.856 121.011 178.336 120.476 178.346 119.83L178.456 112.359C179.262 112.569 180.181 112.606 181.012 112.155C182.217 111.501 182.777 110.098 182.675 107.987C182.535 105.096 182.501 103.359 182.498 102.392L186.622 101.702C186.98 101.642 187.297 101.443 187.503 101.149C187.709 100.856 187.786 100.493 187.715 100.142C187.712 100.124 187.629 99.7025 187.474 98.8638C189.218 98.9172 190.98 98.9784 192.747 99.05L192.319 101.183C192.229 101.631 192.526 102.066 192.98 102.155C193.436 102.243 193.877 101.952 193.968 101.503L194.446 99.1222C195.967 99.1883 197.488 99.2622 199.001 99.3447L199.09 103.953C199.098 104.41 199.482 104.773 199.946 104.764C199.988 104.763 200.03 104.759 200.07 104.753C200.474 104.686 200.778 104.336 200.77 103.922L200.684 99.4399C201.939 99.5133 203.187 99.5933 204.422 99.6788L204.525 103.946C204.54 104.585 205.079 105.091 205.728 105.076C205.786 105.075 205.842 105.07 205.898 105.06C206.465 104.966 206.891 104.474 206.877 103.891L206.779 99.8516C207.557 99.9117 208.328 99.9747 209.092 100.04L208.893 103.708C208.858 104.347 209.356 104.892 210.005 104.926C210.656 104.961 211.208 104.47 211.243 103.832L211.437 100.253C212.576 100.362 213.694 100.478 214.787 100.601L214.028 103.582C213.939 103.933 214.021 104.304 214.25 104.587C214.479 104.869 214.83 105.03 215.197 105.021L218.414 104.946L217.009 125.978C216.967 126.616 217.457 127.167 218.106 127.209C218.199 127.215 218.29 127.21 218.379 127.195C218.905 127.109 219.32 126.676 219.356 126.13L220.846 103.835C220.868 103.511 220.749 103.192 220.521 102.958C220.292 102.723 219.974 102.594 219.644 102.602L216.685 102.67L217.141 100.883C220.112 101.261 222.859 101.698 225.274 102.206C225.935 102.344 226.592 102.477 227.243 102.604V99.2253C226.986 99.1737 226.732 99.1258 226.474 99.0724C226.678 98.0331 226.901 96.4838 227.044 94.2632C227.137 92.7909 227.185 91.1967 227.19 89.4904C227.209 89.4922 227.225 89.4934 227.243 89.4952V87.1685C227.218 87.1661 227.194 87.1637 227.169 87.1613C227.074 82.2405 226.651 76.4786 225.899 69.9279C225.887 69.8351 225.865 69.7441 225.838 69.6568C225.851 69.5665 225.859 69.4755 225.855 69.3815L225.679 64.5401L227.243 64.5856V61.6065L225.262 61.5489C225.097 59.6406 224.922 57.7723 224.736 55.9477C225.421 55.9713 226.27 55.9841 227.243 55.9877V53.0177C226.042 53.0152 225.077 52.9989 224.421 52.9649C224.229 51.2137 224.027 49.5043 223.82 47.8379L227.243 47.9131V45.2681L223.48 45.185C223.17 42.8438 222.849 40.5941 222.521 38.4384C223.373 38.4014 225.059 38.3341 227.243 38.2813V35.6272C224.722 35.6897 222.851 35.7715 222.11 35.8067C220.89 28.2032 219.605 21.8908 218.5 17.047L227.243 13.3366V10.8152L217.965 14.7525C216.975 10.6084 216.187 7.82454 215.81 6.55052C219.672 5.18313 223.516 3.82119 227.243 2.5011V-3.12492Z" fill="#D3D9E3"/>
</g>
<mask id="mask7" mask-type="alpha" maskUnits="userSpaceOnUse" x="5" y="6" width="210" height="143">
<path fill-rule="evenodd" clip-rule="evenodd" d="M6.11989 18.4709L5.82607 147.796L47.4809 135.905L89.082 147.98L130.739 136.089L172.34 148.163L213.982 142.264L214.276 12.9382L172.634 18.8377L131.033 6.76345L89.3771 18.6546L47.7759 6.57971" fill="white"/>
</mask>
<g mask="url(#mask7)">
<path fill-rule="evenodd" clip-rule="evenodd" d="M175.635 130.919L178.905 168.861L227.243 165.977V136.426C227.243 136.426 220.517 135.264 207.932 135.628C196.419 135.961 175.635 130.919 175.635 130.919Z" fill="#697882"/>
</g>
<mask id="mask8" mask-type="alpha" maskUnits="userSpaceOnUse" x="5" y="6" width="210" height="143">
<path fill-rule="evenodd" clip-rule="evenodd" d="M6.11989 18.4709L5.82607 147.796L47.4809 135.905L89.082 147.98L130.739 136.089L172.34 148.163L213.982 142.264L214.276 12.9382L172.634 18.8377L131.033 6.76345L89.3771 18.6546L47.7759 6.57971" fill="white"/>
</mask>
<g mask="url(#mask8)">
<path d="M-7.12398 118.105C-7.12398 118.105 4.19862 113.779 17.5799 105.127C30.9605 96.4754 54.688 83.6256 61.7214 79.4603C79.0056 69.2246 92.9025 55.0898 106.767 46.7429C124.36 36.1519 155.16 25.0914 181.214 15.9193C206.457 7.03274 227.243 -0.134705 227.243 -0.134705" stroke="#C7CEDC" stroke-width="2" stroke-dasharray="6 8"/>
</g>
<g style="mix-blend-mode:multiply" opacity="0.04">
<path fill-rule="evenodd" clip-rule="evenodd" d="M0.809868 13.8688L47.7642 0.472656L47.4456 140.602L0.490036 153.998L0.809868 13.8688Z" fill="black"/>
</g>
<g style="mix-blend-mode:multiply" opacity="0.04">
<path fill-rule="evenodd" clip-rule="evenodd" d="M173.05 12.8383L171.979 152.75L219.295 146.05L219.613 6.24481L173.05 12.8383Z" fill="black"/>
</g>
<g style="mix-blend-mode:multiply" opacity="0.04">
<path fill-rule="evenodd" clip-rule="evenodd" d="M89.3827 12.5455L89.0635 152.675L130.736 140.785L131.056 0.656616L89.3827 12.5455Z" fill="black"/>
</g>
<g filter="url(#filter0_d)">
<path fill-rule="evenodd" clip-rule="evenodd" d="M110.5 65.7136C106.177 65.7136 102.673 62.1862 102.673 57.835C102.673 53.4838 106.177 49.957 110.5 49.957C114.822 49.957 118.326 53.4838 118.326 57.835C118.326 62.1862 114.822 65.7136 110.5 65.7136ZM110.182 45.0039C102.727 45.1818 96.8277 51.4082 97.0038 58.9127C97.18 66.4167 110.82 86 110.82 86C110.82 86 124.174 65.7746 123.998 58.27C123.822 50.7654 117.638 44.8266 110.182 45.0039Z" fill="#2BC866"/>
</g>
<defs>
<filter id="filter0_d" x="92" y="45" width="37" height="53" filterUnits="userSpaceOnUse" color-interpolation-filters="sRGB">
<feFlood flood-opacity="0" result="BackgroundImageFix"/>
<feColorMatrix in="SourceAlpha" type="matrix" values="0 0 0 0 0 0 0 0 0 0 0 0 0 0 0 0 0 0 127 0"/>
<feOffset dy="7"/>
<feGaussianBlur stdDeviation="2.5"/>
<feColorMatrix type="matrix" values="0 0 0 0 0 0 0 0 0 0 0 0 0 0 0 0 0 0 0.15 0"/>
<feBlend mode="normal" in2="BackgroundImageFix" result="effect1_dropShadow"/>
<feBlend mode="normal" in="SourceGraphic" in2="effect1_dropShadow" result="shape"/>
</filter>
</defs>
</svg>
