<svg width="433" height="308" viewBox="0 0 433 308" fill="none" xmlns="http://www.w3.org/2000/svg">
<path fill-rule="evenodd" clip-rule="evenodd" d="M257.234 259.939L339.833 284.299L410.647 274.106L411.181 36.5245L338.887 46.9317L257.765 23.0075L175.797 46.7826L93.9364 22.6401L22.3599 43.4012L21.8278 280.333L93.4068 259.572L175.267 283.713L257.234 259.939ZM1 308L1.62909 27.788L93.9849 1L175.845 25.1413L257.814 1.36736L340.413 25.7269L432 12.5432L431.373 292.105L338.307 305.504L257.185 281.579L175.218 305.355L93.3583 281.212L1 308Z" fill="white"/>
<path fill-rule="evenodd" clip-rule="evenodd" d="M339.094 37.5017L257.269 13.366L175.337 37.1344L93.512 13L11.5791 36.7684L11 295.266L92.9317 271.498L174.757 295.633L256.69 271.866L338.515 296L420.421 284.208L421 25.7096L339.094 37.5017Z" fill="#F1F6F9"/>
<path fill-rule="evenodd" clip-rule="evenodd" d="M11.5779 36.7672L11 295.266L92.9307 271.498L174.756 295.633L256.69 271.866L338.516 296L420.421 284.209L421 25.7096L339.095 37.5017L257.269 13.366L175.336 37.1344L93.5111 13L11.5779 36.7672Z" fill="#F1F6F9"/>
<path fill-rule="evenodd" clip-rule="evenodd" d="M145 142.023L166.833 189H201L191.238 153.052L174.552 123L145 142.023Z" fill="#3B3F51" fill-opacity="0.5"/>
<path fill-rule="evenodd" clip-rule="evenodd" d="M353.745 35.8626L332 45.4063L336.308 45.3028L349.19 92L421.885 77.4697L422 26L353.745 35.8626Z" fill="#556976" fill-opacity="0.5"/>
<path fill-rule="evenodd" clip-rule="evenodd" d="M49 111.676L56.1454 112.283L79.8037 175L142 145.431L130.829 125.237L112.007 100L49 111.676Z" fill="#697882" fill-opacity="0.5"/>
<mask id="mask0" mask-type="alpha" maskUnits="userSpaceOnUse" x="11" y="13" width="411" height="284">
<path fill-rule="evenodd" clip-rule="evenodd" d="M12.0451 36.9417L11.4668 295.592L93.451 271.81L175.33 295.959L257.318 272.178L339.196 296.326L421.155 284.528L421.735 25.8765L339.776 37.6755L257.897 13.5269L175.91 37.3092L94.0317 13.1594L12.0451 36.9417Z" fill="white"/>
</mask>
<g mask="url(#mask0)">
<path fill-rule="evenodd" clip-rule="evenodd" d="M111.284 94.6399C111.065 94.2373 110.854 93.8541 110.652 93.4866L111.807 92.8426C112.015 93.2137 112.227 93.603 112.447 94.0081L111.284 94.6399Z" fill="#C7CEDC"/>
</g>
<mask id="mask1" mask-type="alpha" maskUnits="userSpaceOnUse" x="11" y="13" width="411" height="284">
<path fill-rule="evenodd" clip-rule="evenodd" d="M12.0451 36.9417L11.4668 295.592L93.451 271.81L175.33 295.959L257.318 272.178L339.196 296.326L421.155 284.528L421.735 25.8765L339.776 37.6755L257.897 13.5269L175.91 37.3092L94.0317 13.1594L12.0451 36.9417Z" fill="white"/>
</mask>
<g mask="url(#mask1)">
<path fill-rule="evenodd" clip-rule="evenodd" d="M96.2068 58.8313C95.894 58.0685 95.5775 57.2911 95.2587 56.504L96.4844 56.008C96.8033 56.7939 97.1185 57.5676 97.4313 58.3292L96.2068 58.8313ZM98.1248 63.4726L97.1633 61.1538L98.3866 60.648L99.3468 62.9644L98.1248 63.4726ZM100.045 68.1065C99.7372 67.3583 99.4172 66.5857 99.0874 65.7902L100.309 65.2832C100.639 66.08 100.961 66.8538 101.27 67.6045L100.045 68.1065ZM101.521 72.8072C101.312 72.0444 101.096 71.2355 100.873 70.3781L102.152 70.0433C102.375 70.8959 102.59 71.6988 102.797 72.458L101.521 72.8072ZM102.933 77.6462C102.698 76.9015 102.455 76.0999 102.203 75.2315L103.474 74.8629C103.722 75.7203 103.961 76.5122 104.194 77.2472L102.933 77.6462ZM104.636 82.416C104.33 81.6701 104.034 80.894 103.733 80.0438L104.98 79.6036C105.274 80.4319 105.562 81.1874 105.861 81.9115L104.636 82.416ZM106.875 86.9857C106.417 86.1755 106.038 85.4624 105.683 84.7396L106.871 84.1563C107.214 84.8548 107.581 85.5473 108.026 86.3356L106.875 86.9857ZM109.416 91.3153C109.002 90.6058 108.617 89.957 108.253 89.3445L108.145 89.1638L109.282 88.4871L109.39 88.669C109.756 89.2839 110.143 89.9363 110.559 90.6494L109.416 91.3153Z" fill="#C7CEDC"/>
</g>
<mask id="mask2" mask-type="alpha" maskUnits="userSpaceOnUse" x="11" y="13" width="411" height="284">
<path fill-rule="evenodd" clip-rule="evenodd" d="M12.0451 36.9417L11.4668 295.592L93.451 271.81L175.33 295.959L257.318 272.178L339.196 296.326L421.155 284.528L421.735 25.8765L339.776 37.6755L257.897 13.5269L175.91 37.3092L94.0317 13.1594L12.0451 36.9417Z" fill="white"/>
</mask>
<g mask="url(#mask2)">
<path fill-rule="evenodd" clip-rule="evenodd" d="M94.3101 54.1425L93.8215 52.9091L95.052 52.424L95.5394 53.6538L94.3101 54.1425Z" fill="#C7CEDC"/>
</g>
<mask id="mask3" mask-type="alpha" maskUnits="userSpaceOnUse" x="11" y="13" width="411" height="284">
<path fill-rule="evenodd" clip-rule="evenodd" d="M12.0451 36.9417L11.4668 295.592L93.451 271.81L175.33 295.959L257.318 272.178L339.196 296.326L421.155 284.528L421.735 25.8765L339.776 37.6755L257.897 13.5269L175.91 37.3092L94.0317 13.1594" fill="white"/>
</mask>
<g mask="url(#mask3)">
<path fill-rule="evenodd" clip-rule="evenodd" d="M138.659 145.969L137.345 146.128C137.345 146.123 137.292 145.689 137.129 144.875L138.428 144.617C138.6 145.488 138.657 145.95 138.659 145.969Z" fill="#C7CEDC"/>
</g>
<mask id="mask4" mask-type="alpha" maskUnits="userSpaceOnUse" x="11" y="13" width="411" height="284">
<path fill-rule="evenodd" clip-rule="evenodd" d="M12.0451 36.9417L11.4668 295.592L93.451 271.81L175.33 295.959L257.318 272.178L339.196 296.326L421.155 284.528L421.735 25.8765L339.776 37.6755L257.897 13.5269L175.91 37.3092L94.0317 13.1594L12.0451 36.9417Z" fill="white"/>
</mask>
<g mask="url(#mask4)">
<path fill-rule="evenodd" clip-rule="evenodd" d="M136.637 142.708C136.476 142.072 136.281 141.352 136.045 140.554L137.315 140.179C137.555 140.995 137.755 141.731 137.92 142.381L136.637 142.708Z" fill="#C7CEDC"/>
</g>
<mask id="mask5" mask-type="alpha" maskUnits="userSpaceOnUse" x="11" y="13" width="411" height="284">
<path fill-rule="evenodd" clip-rule="evenodd" d="M12.0451 36.9417L11.4668 295.592L93.451 271.81L175.33 295.959L257.318 272.178L339.196 296.326L421.155 284.528L421.735 25.8765L339.776 37.6755L257.897 13.5269L175.91 37.3092L94.0317 13.1594L12.0451 36.9417Z" fill="white"/>
</mask>
<g mask="url(#mask5)">
<path fill-rule="evenodd" clip-rule="evenodd" d="M135.376 138.414C135.244 138.014 135.102 137.599 134.952 137.171L136.202 136.735C136.355 137.171 136.498 137.591 136.632 138L135.376 138.414Z" fill="#C7CEDC"/>
</g>
<mask id="mask6" mask-type="alpha" maskUnits="userSpaceOnUse" x="11" y="13" width="411" height="284">
<path fill-rule="evenodd" clip-rule="evenodd" d="M12.0451 36.9417L11.4668 295.592L93.451 271.81L175.33 295.959L257.318 272.178L339.196 296.326L421.155 284.528L421.735 25.8765L339.776 37.6755L257.897 13.5269L175.91 37.3092L94.0317 13.1594L12.0451 36.9417Z" fill="white"/>
</mask>
<g mask="url(#mask6)">
<path fill-rule="evenodd" clip-rule="evenodd" d="M431.199 72.0427C413.944 73.8388 381.029 80.8874 378.626 81.4065L351.029 85.5456C348.763 75.8714 346.159 67.8405 342.599 59.5051L341.505 56.9462C339.945 53.2982 338.189 49.1906 336.348 44.8319C346.629 41.1754 366.764 33.9509 389.901 25.635L395.839 34.9527C396.354 35.7604 397.286 36.1412 398.177 35.992C398.473 35.9411 398.765 35.8332 399.034 35.6597C400.112 34.9733 400.43 33.541 399.742 32.4629L394.369 24.0293C402.418 21.1356 410.766 18.134 419.141 15.1203C419.924 17.8296 421.496 23.5187 423.445 31.8977L419.458 33.6174L412.332 36.7379C411.768 36.9841 411.324 37.4473 411.101 38.0234C410.878 38.5983 410.895 39.2386 411.146 39.8025L415.022 48.4981L416.044 51.9642C416.378 53.1017 417.508 53.7869 418.646 53.5953C418.738 53.5796 418.828 53.5589 418.919 53.5323C420.146 53.1709 420.847 51.8829 420.485 50.6556L419.421 47.0428C419.393 46.9433 419.357 46.8475 419.314 46.7529L416.324 40.0451L421.304 37.8658L424.491 36.4917C426.559 45.7997 428.933 57.7503 431.199 72.0427ZM433.834 90.2585C422.14 90.518 404.924 93.6263 404.095 93.7779C404.051 93.7852 404.01 93.8022 403.969 93.8131L373.183 100.999L354.717 104.239C353.883 99.3275 353.048 94.867 352.177 90.7254L379.494 86.6274C379.549 86.6214 379.603 86.6105 379.659 86.5983C380.046 86.5159 414.855 79.0319 432.008 77.2794C432.632 81.4283 433.244 85.7567 433.834 90.2585ZM435.708 105.868C419.831 107.081 370.608 115.233 356.834 117.544C356.418 114.782 356.008 112.136 355.604 109.614L374.187 106.317C374.235 106.308 374.256 106.143 374.304 106.132L405.1 98.9649C406.276 98.7527 423.613 95.6807 434.507 95.534C434.92 98.8909 435.321 102.334 435.708 105.868ZM438.493 137.76L401.394 144.861C400.915 144.626 400.356 144.547 399.797 144.695C399.346 144.814 398.963 145.06 398.671 145.382L361.815 152.436C361.276 148.688 360.712 144.719 360.125 140.492C359.267 134.316 358.47 128.666 357.708 123.436C384.178 118.995 424.719 112.596 436.323 111.724C437.153 119.968 437.89 128.659 438.493 137.76ZM441.125 173.676C434.189 172.879 426.554 171.87 420.678 171.095C416.031 170.48 411.853 169.93 408.421 169.511C406.502 161.553 404.752 154.628 403.689 150.472L439.042 143.709C440.365 156.081 440.955 165.92 441.125 173.676ZM439.892 196.987C431.052 195.392 420.565 194.182 409.381 193.265C409.998 190.34 411.018 183.416 409.445 174.307C412.636 174.706 416.309 175.191 420.072 175.687C428.556 176.807 435.526 177.696 441.177 178.342C441.182 188.274 440.446 194.052 439.892 196.987ZM404.736 192.805L404.626 192.895C399.91 192.548 395.097 192.25 390.255 191.993L390.161 187.996C390.151 187.559 389.966 187.141 389.649 186.838C389.332 186.536 388.907 186.371 388.468 186.382L378.549 186.618C377.635 186.638 376.913 187.396 376.934 188.309L377.008 191.389C373.923 191.271 370.852 191.167 367.813 191.073C367.024 186.451 365.964 180.013 364.672 171.63C368.035 171.067 370.935 170.597 372.951 170.296C379.018 169.391 384.657 170.622 390.11 171.813C393.614 172.576 396.922 173.3 400.042 173.347C400.948 173.362 402.556 173.506 404.627 173.734C406.543 183.405 405.225 190.668 404.736 192.805ZM380.319 191.522L380.28 189.886L386.894 189.73L386.943 191.824C384.736 191.716 382.525 191.614 380.319 191.522ZM362.67 158.319L399.131 151.344C400.111 155.168 401.724 161.536 403.524 168.96C402.067 168.817 400.904 168.729 400.115 168.717C397.457 168.676 394.368 168 391.097 167.287C385.509 166.067 379.175 164.685 372.268 165.714C370.244 166.016 367.338 166.487 363.972 167.051C363.559 164.32 363.125 161.413 362.67 158.319ZM356.134 199.935C354.926 200.141 354.017 201.15 353.937 202.373C353.93 202.498 353.743 205.556 354.25 216.226C354.388 219.111 353.718 219.67 353.71 219.673C353.393 219.847 352.374 219.611 351.318 219.109L351.652 197.308C355.527 197.377 359.517 197.463 363.577 197.571C363.645 197.953 363.71 198.313 363.77 198.637L356.134 199.935ZM335.554 190.495C334.84 185.703 334.147 181.18 333.491 177.054C339.653 175.96 350.341 174.07 359.454 172.514C360.653 180.28 361.649 186.376 362.42 190.924C352.839 190.678 343.693 190.554 335.554 190.495ZM346.041 218.126L339.607 218.562C338.576 211.26 337.538 203.998 336.532 197.119C339.676 197.143 342.963 197.178 346.36 197.226L346.041 218.126ZM345.762 237.036L343.734 237.083L340.766 226.782C340.626 225.787 340.488 224.804 340.349 223.817L345.961 223.438L345.762 237.036ZM345.933 330.596C334.647 330.335 324.306 329.247 312.814 327.332C312.332 327.252 311.842 327.24 311.356 327.294C311.176 327.313 306.676 327.819 299.425 328.659L294.421 255.638L302.425 255.448L303.094 283.715C303.11 284.35 303.383 284.95 303.853 285.376C304.323 285.802 304.946 286.017 305.579 285.97L338.088 283.581C339.142 290.881 340.161 297.792 341.113 304.012C342.407 312.465 344.085 321.53 345.933 330.596ZM348.175 341.237C349.136 345.667 350.119 350.037 351.098 354.274L326.306 357.846L308.453 358.268C306.809 358.306 305.508 359.671 305.547 361.314C305.587 362.959 306.95 364.26 308.594 364.222L326.624 363.795C326.743 363.792 326.861 363.783 326.978 363.766L352.457 360.096C355.955 374.897 359.233 387.518 361.082 394.478C344.732 396.84 328.664 398.358 320.313 398.388C320.168 398.39 320.025 398.396 319.882 398.407C319.467 398.443 278.153 401.934 254.584 400.468C250.933 400.24 247.385 400.154 243.923 400.198L242.137 390.117L252.775 388.371C252.779 388.37 252.784 388.368 252.788 388.368C253.574 388.236 254.276 387.791 254.733 387.136C255.193 386.478 255.367 385.662 255.217 384.872L249.841 356.764C249.543 355.203 248.075 354.153 246.504 354.373L237.026 355.705L233.833 347.388C248.188 345.49 263.212 343.627 276.245 342.058L276.353 346.589L259.486 346.986C258.662 347.01 257.877 347.37 257.329 347.989C256.78 348.61 256.514 349.43 256.594 350.254L257.284 357.297C257.446 358.935 258.902 360.13 260.537 359.97C260.606 359.963 260.677 359.953 260.744 359.942C262.273 359.685 263.362 358.282 263.209 356.715L262.832 352.866L279.471 352.471C280.258 352.451 281.01 352.121 281.554 351.55C282.099 350.978 282.394 350.214 282.376 349.424L282.184 341.346C297.34 339.536 308.864 338.229 311.805 337.897C324.402 339.968 335.673 341.079 348.175 341.237ZM213.502 404.774L200.399 352.138C208.369 350.886 217.803 349.542 227.766 348.198L230.975 356.556L219.675 358.144C218.061 358.385 216.913 359.879 217.141 361.508C217.371 363.136 218.876 364.271 220.504 364.042L235.422 361.945C235.479 361.937 235.538 361.928 235.593 361.92L244.526 360.664L248.795 382.99L222.597 387.292C222.593 387.292 222.589 387.293 222.584 387.293C220.97 387.566 219.876 389.094 220.142 390.713C220.408 392.335 221.938 393.435 223.562 393.169L236.261 391.083L237.916 400.425C229.217 400.953 221.109 402.39 213.502 404.774ZM201.705 409.408C201.174 409.661 200.597 409.933 199.994 410.216C194.927 394.566 187.806 372.499 182.225 354.946C183.364 354.771 184.512 354.594 185.682 354.416C188.53 353.979 191.472 353.528 194.492 353.06L207.86 406.755C205.772 407.565 203.72 408.446 201.705 409.408ZM175.498 421.264L163.142 381.377L172.733 375.807C174.154 374.98 174.638 373.158 173.812 371.735C172.986 370.313 171.165 369.83 169.744 370.656L161.333 375.541L156.279 359.223C161.028 358.328 166.137 357.47 171.641 356.593C177.457 374.91 185.067 398.488 190.305 414.655C185.194 416.962 179.758 419.378 175.498 421.264ZM115.522 361.593C105.488 367.693 87.4649 371.416 73.5212 373.169C75.7047 364.926 75.5326 357.542 74.9058 351.448C79.4692 353.224 84.9249 353.581 91.2282 352.518C95.5212 351.794 100.208 350.411 105.271 348.374C128.475 339.03 153.437 332.169 163.327 329.595C163.392 329.804 163.453 330.005 163.502 330.192C164.121 332.544 165.938 338.483 168.419 346.387C145.101 350.137 128.493 353.706 115.522 361.593ZM64.2986 332.695C63.8391 333.645 63.5639 334.58 63.4087 335.475C62.0011 334.958 60.471 334.479 58.7846 334.046C63.5954 331.947 64.2695 330.923 64.7908 330.13C66.2457 327.917 68.9541 323.8 62.3442 279.775C61.4107 273.562 60.3547 267.059 59.2671 260.743C66.3305 259.77 79.1479 257.606 84.8764 254.114C87.5122 252.507 90.5529 250.793 93.7039 249.093L96.3432 254.203C92.8673 256.223 89.1622 258.49 85.9227 260.715C77.3427 266.61 70.3363 268.13 70.2744 268.142C68.7262 268.459 67.6957 269.93 67.9248 271.493L75.5762 323.604C69.7689 326.084 66.0383 329.09 64.2986 332.695ZM62.0872 374.245C59.5448 374.386 57.4837 374.414 56.0895 374.336C47.4233 373.848 33.8809 380.627 28.1948 383.722C26.2356 382.61 22.9791 380.403 19.2547 376.431C15.8806 372.837 14.5761 357.068 15.2417 344.01C17.1487 343.064 21.5982 342.261 27.3765 341.933C28.3294 341.93 29.3236 341.89 30.3626 341.81C35.5419 341.673 41.5093 341.905 47.5591 342.698C58.4682 344.129 62.8279 346.552 63.7481 347.485C64.7253 354.554 65.911 363.751 62.0872 374.245ZM53.8878 388.359C52.2826 390.542 50.624 392.797 49.1801 395.012C48.4369 396.152 47.7482 397.277 47.0948 398.388C45.8642 396.961 44.636 395.51 43.4188 394.035C42.1106 392.446 40.7006 391.12 39.2094 390.004C45.2968 387.147 51.9383 384.705 55.493 384.907C55.7621 384.922 56.0555 384.934 56.3744 384.941C55.5936 386.039 54.751 387.186 53.8878 388.359ZM14.7506 321.212C14.0511 317.315 13.1163 312.928 12.0228 308.271L45.4689 302.335C47.0887 302.046 48.1677 300.501 47.8804 298.882C47.5931 297.263 46.0339 296.187 44.4287 296.471L10.6128 302.473C5.11335 280.546 -3.1212 254.854 -7.56945 245.594C-8.55149 243.55 -9.66325 241.865 -10.8538 240.463C1.78656 235.998 17.5319 226.8 35.5686 215.211C38.3692 219.258 40.6982 223.609 41.9118 228.017C42.8029 231.256 44.1135 237.206 45.5987 244.802L35.2606 247.969L33.7476 240.207C33.4323 238.592 31.8538 237.525 30.2559 237.854C28.6422 238.169 27.5898 239.733 27.9038 241.347L30.0498 252.354C30.211 253.181 30.7166 253.902 31.4392 254.336C32.0514 254.703 32.7704 254.838 33.4663 254.72C33.5924 254.699 33.7185 254.668 33.8433 254.631L46.7226 250.687C48.3108 259.199 50.019 269.154 51.5879 279.438C53.9617 294.99 55.1644 305.774 55.6858 312.949L14.7603 321.256C14.7579 321.241 14.7543 321.227 14.7506 321.212ZM4.73266 342.355C4.55929 345.278 4.18102 353.767 4.96908 362.527L4.17981 362.455L-2.02641 329.688L6.22633 328.931C7.24958 331.052 8.60988 332.984 10.289 334.708C7.1441 336.302 4.79207 338.702 4.73266 342.355ZM23.6023 187.15L22.9718 186.604C22.065 185.816 20.9823 185.294 19.7336 185.035L19.6693 182.287C19.5517 177.283 16.2346 174.346 10.2163 169.015C9.93745 168.769 9.65254 168.517 9.36035 168.257L20.3531 159.754L45.9563 195.769C43.3982 197.463 40.7079 199.245 37.9279 201.071C32.3861 194.756 26.7375 189.863 23.6023 187.15ZM4.86602 164.206C2.38305 161.918 -0.460002 159.205 -3.69223 155.905L12.6859 148.97L16.899 154.896L4.86602 164.206ZM55.8894 323.722C52.3468 325.403 42.712 329.21 33.6154 330.743C32.1569 330.99 30.8827 331.144 29.7552 331.236C28.8616 331.26 27.9742 331.294 27.1049 331.341C24.5019 331.315 23.1598 330.868 22.5851 330.593C20.3967 329.55 18.6715 328.292 17.3852 326.801L55.9973 318.962C56.0519 321.167 56.001 322.72 55.8894 323.722ZM52.5929 204.07C56.5187 201.47 60.2262 199.012 63.7275 196.731C71.0843 191.938 77.7646 188.545 85.3347 184.764C91.3106 195.366 97.0452 205.608 102.194 214.909L82.9306 226.726L79.3661 218.921C78.6824 217.425 76.9147 216.767 75.4222 217.45C73.9261 218.134 73.2678 219.901 73.9516 221.396L78.9139 232.26C79.2679 233.036 79.936 233.622 80.7519 233.871C81.1981 234.008 81.6648 234.035 82.1146 233.959C82.488 233.896 82.8481 233.764 83.1767 233.563L105.076 220.127C107.632 224.769 110.012 229.124 112.167 233.115C105.55 236.268 91.3191 243.21 81.7776 249.029C77.2917 251.764 65.6128 253.844 58.2354 254.868C55.9416 242.052 53.6308 230.711 52.1153 225.208C50.5743 219.605 47.7713 214.277 44.4627 209.433C47.1299 207.685 49.8396 205.894 52.5929 204.07ZM53.7593 163.119L68.5443 155.138C72.4046 161.918 76.2915 168.766 80.1215 175.535C74.9421 178.123 70.1386 180.568 65.2054 183.418L53.7593 163.119ZM28.9623 119.142L31.6501 118.335C33.2141 117.866 34.1101 116.224 33.6554 114.654L21.7776 73.6678C27.2795 83.1771 45.7793 115.193 65.5958 149.962L50.8338 157.931L28.9623 119.142ZM25.5397 21.1926C25.7567 19.3747 25.9677 17.6647 26.1665 16.0493C27.5256 5.03133 28.2724 -2.09246 26.8042 -8.98582C29.2047 -10.3223 32.517 -11.7158 35.788 -11.6248C37.3338 -11.5824 42.2682 -11.5399 49.1316 -11.4999L42.4113 26.2147C42.1919 27.4542 43.0017 28.6427 44.2335 28.8913C45.4702 29.1411 46.6753 28.3577 46.9505 27.1291L51.2981 7.77945L77.3912 9.76475C78.612 23.5757 83.1391 37.9009 87.8517 50.316L26.9752 57.9395C25.2257 50.5513 23.5283 38.1313 25.5397 21.1926ZM53.8308 -11.4744C60.7754 -11.4392 69.056 -11.4065 77.5791 -11.3762C77.4348 -7.17516 77.2893 -3.49684 77.1463 -0.575291C77.0553 1.29479 77.0517 3.18913 77.1099 5.09803L51.2302 3.1285L53.8308 -11.4744ZM87.7171 -0.0574417C87.8662 -3.09785 88.0177 -6.94231 88.1681 -11.341C107.822 -11.278 126.36 -11.2355 130.377 -11.227L143.94 -4.60653L141.093 2.11947L87.6565 2.14616C87.6637 1.40637 87.6819 0.671432 87.7171 -0.0574417ZM148.109 -2.57272L154.017 0.311241L150.441 4.46375C149.902 5.08833 149.738 5.95303 150.007 6.73284L154.407 19.4317C154.457 19.5772 154.522 19.7167 154.6 19.8489L157.023 23.9614L149.627 26.8417C147.432 16.1403 145.567 7.1949 145.041 4.67113L148.109 -2.57272ZM158.319 2.41054L172.204 9.18748L167.639 11.4541C166.835 11.8543 166.333 12.6839 166.355 13.5838L166.514 20.2673L161.396 22.2587L158.706 17.6962L154.819 6.47694L158.319 2.41054ZM182.597 34.7113L171.18 38.8566L163.78 26.302L169.705 23.9941C170.613 23.6412 171.203 22.7559 171.18 21.782L171.019 14.9469L176.259 12.3443L182.597 34.7113ZM217.134 5.87541C217.421 6.00275 217.74 6.07309 218.073 6.07188L250.273 5.97122C251.536 5.96394 252.56 4.95492 252.581 3.69486C252.602 2.43358 251.612 1.38696 250.352 1.33967C250.263 1.33724 244.906 1.14199 237.108 1.07165L234.343 -15.0011L267.518 -15.1503L269.789 -3.23246C270.028 -1.97725 271.221 -1.14529 272.496 -1.39148C273.752 -1.63161 274.575 -2.84438 274.337 -4.1008L272.411 -14.2092C274.276 -8.43644 276.182 -2.90501 278.077 2.34869C266.886 10.6319 220.651 44.7409 196.237 61.0029L189.769 38.1823L206.629 37.7833C207.912 37.7542 208.92 36.6918 208.889 35.4123C208.858 34.1341 207.797 33.1226 206.52 33.1529L188.465 33.5798L181.76 9.91756C187.96 7.76005 200.124 6.36779 217.134 5.87541ZM243.373 35.1346C253.24 28.0011 262.596 21.1551 269.86 15.814L275.142 24.1275L265.987 29.6772C265.744 29.8251 265.532 30.0155 265.358 30.2399L251.856 47.6746L243.373 35.1346ZM280.217 8.17482C284.666 20.1048 288.952 30.4291 292.399 38.7329C293.851 42.2329 295.111 45.2685 296.137 47.8359C281.936 53.1878 265.09 59.9199 248.457 67.4633L232.555 42.9193C234.913 41.2324 237.273 39.5357 239.617 37.8464L249.814 52.9186C250.228 53.5335 250.914 53.9119 251.655 53.9349C252.4 53.9604 253.106 53.6256 253.56 53.0387L268.755 33.4161L277.626 28.0375L279.203 30.52C279.884 31.5921 281.304 31.9147 282.381 31.2428C283.46 30.5722 283.796 29.1569 283.134 28.0715L280.425 23.6267C280.295 23.4156 280.139 23.2325 279.963 23.0797L273.598 13.0623C276.241 11.1146 278.482 9.45914 280.217 8.17482ZM292.855 -20.307C293.186 -20.2039 293.541 -20.1772 293.891 -20.2306L307.948 -22.3869C308.367 -20.3228 308.88 -18.1968 309.401 -16.0453C310.026 -13.467 310.671 -10.8025 311.232 -8.0241C311.761 -5.40938 312.641 -2.22708 313.773 1.34573L299.46 11.1449C298.405 11.8677 298.135 13.3085 298.857 14.3648C299.58 15.4211 301.022 15.6903 302.076 14.9675L315.286 5.92271C315.997 7.99654 316.773 10.1662 317.597 12.4037C311.813 16.4156 305.072 20.368 297.52 23.3768C292.77 11.6809 287.235 -2.6188 282.061 -18.7995L292.855 -20.307ZM319.271 16.8703C321.706 23.2665 324.448 30.0604 327.21 36.7245C322.594 38.2793 315.192 40.8273 306.064 44.1552C304.991 41.4616 303.685 38.3157 302.173 34.6738C301.262 32.4786 300.29 30.138 299.274 27.664C306.784 24.6684 313.481 20.8118 319.271 16.8703ZM328.345 2.3305C328.439 2.31352 328.534 2.29047 328.626 2.26137L331.815 1.25599C329.103 3.57237 325.842 6.31686 322.059 9.17171C321.387 7.32709 320.754 5.53826 320.167 3.82099L328.345 2.3305ZM313.103 67.9702C311.889 62.7675 310.7 58.1056 309.556 54.1981C319.169 50.6798 326.855 48.0312 331.314 46.5249C332.943 50.3754 334.523 54.078 335.997 57.5235L313.103 67.9702ZM317.913 90.5119C316.655 84.1946 315.394 78.1429 314.154 72.5812L337.816 61.7851C341.144 69.6075 343.617 77.2139 345.775 86.3327L317.913 90.5119ZM321.654 110.04C320.758 105.212 319.85 100.408 318.935 95.7135L346.932 91.5137C347.815 95.6795 348.658 100.176 349.505 105.154L321.654 110.04ZM330.299 158.468C329.669 154.906 329.004 151.133 328.313 147.199C327.362 141.794 326.355 136.074 325.31 130.207L339.699 125.712C340.92 125.33 341.601 124.032 341.219 122.81C340.839 121.589 339.541 120.91 338.319 121.289L324.488 125.611C323.887 122.252 323.273 118.862 322.653 115.466L350.393 110.541C351.782 119.197 353.218 129.227 354.884 141.221C355.485 145.544 356.06 149.608 356.612 153.431L330.299 158.468ZM332.752 172.479C332.334 169.944 331.934 167.605 331.556 165.511C331.486 165.118 331.413 164.713 331.342 164.312L357.469 159.315C357.916 162.362 358.345 165.238 358.754 167.932C349.636 169.491 338.946 171.379 332.752 172.479ZM316.029 249.679L320.181 197.064C321.958 197.063 323.844 197.063 325.826 197.067C327.084 205.629 328.379 214.728 329.607 223.442C330.545 230.088 331.499 236.91 332.456 243.747C332.777 246.047 333.101 248.353 333.425 250.661C328.455 250.388 321.363 249.994 316.029 249.679ZM311.499 255.369C316.976 255.717 327.939 256.325 334.267 256.671C335.332 264.252 336.393 271.776 337.426 278.985L307.665 281.172L307.08 256.387L311.499 255.369ZM287.133 196.338L287.284 202.676C287.313 203.954 288.374 204.967 289.653 204.935C290.932 204.907 291.943 203.845 291.911 202.565L291.768 196.502L302.492 196.88L303.564 218.094L279.176 214.078L278.751 196.043L287.133 196.338ZM273.248 150.079L279.05 149.204L282.944 188.843C282.97 189.101 283.038 189.344 283.123 189.575L278.591 189.415C278.586 189.332 278.576 189.248 278.564 189.164L273.248 150.079ZM221.21 289.276L221.606 317.579C221.63 319.223 222.981 320.537 224.624 320.515C224.78 320.513 224.933 320.498 225.081 320.474C226.505 320.233 227.581 318.984 227.559 317.497L227.148 288.167L240.553 285.665L241.316 301.279C241.395 302.921 242.791 304.188 244.434 304.108C244.554 304.102 244.671 304.088 244.787 304.068C246.254 303.82 247.337 302.509 247.261 300.987L246.46 284.562L262.042 281.654L265.617 317.607C265.779 319.244 267.238 320.438 268.874 320.275C268.943 320.269 269.01 320.26 269.076 320.249C270.607 319.99 271.696 318.586 271.541 317.018L267.915 280.557L274.762 279.279L275.994 331.424C257.85 333.607 235.638 336.377 216.685 339.033L214.227 311.895C214.225 311.867 214.221 311.841 214.218 311.813L211.743 291.044L221.21 289.276ZM210.488 280.509L210.339 279.255C210.332 279.196 210.322 279.136 210.313 279.078C209.959 277.114 209.477 273.791 209.148 270.018L249.704 265.77C250.499 265.689 251.22 265.292 251.717 264.671C252.214 264.051 252.443 263.258 252.351 262.469L249.983 241.883L273.824 239.586L274.144 253.106C274.144 253.117 274.145 253.128 274.144 253.139C274.145 253.15 274.145 253.161 274.145 253.172L274.515 268.819C273.984 268.75 273.435 268.758 272.882 268.859L210.488 280.509ZM205.94 292.651L208.301 312.475L210.783 339.874C206.442 340.499 202.327 341.117 198.545 341.712C193.493 342.509 188.675 343.246 184.08 343.95C182.35 344.215 180.659 344.474 178.992 344.731C176.322 336.25 174.363 329.873 173.739 327.497C173.298 325.83 172.476 323.73 171.342 321.261C171.298 321.159 171.253 321.059 171.203 320.961C169.301 316.863 166.562 311.763 163.274 305.889L205.94 292.651ZM157.933 296.461C157.375 295.485 156.81 294.496 156.235 293.493C148.163 279.364 139.014 263.353 132.377 249.136C130.608 245.347 127.636 239.58 123.799 232.399L171.046 193.54C171.463 193.198 171.759 192.759 171.937 192.281L179.925 192.561L186.081 258.571L164.711 265.419C163.146 265.922 162.283 267.598 162.785 269.164C163.287 270.73 164.963 271.592 166.527 271.092L186.648 264.643L188.724 286.908L157.933 296.461ZM106.17 287.098L77.4772 295.57L74.1953 273.221C77.3548 272.204 82.933 269.994 89.292 265.624C92.2199 263.614 95.5952 261.54 98.825 259.654L106.17 287.098ZM125.772 287.521L128.969 293.907L115.297 298.173L113.422 291.168L125.772 287.521ZM111.882 285.412L104.175 256.614C106.052 255.573 107.715 254.678 108.992 253.999L123.064 282.111L111.882 285.412ZM79.4995 309.342L78.3514 301.522L107.711 292.852L109.609 299.948L79.4995 309.342ZM111.15 305.705L112.914 312.296C103.409 315.44 93.9779 318.335 86.8041 320.04C84.8352 320.509 83.0069 321.01 81.2902 321.539L80.3748 315.308L111.15 305.705ZM114.99 238.371C118.475 244.909 121.168 250.15 122.787 253.617C129.61 268.229 138.874 284.442 147.047 298.746C147.285 299.165 147.525 299.583 147.763 300C141.297 302.399 130.206 306.449 118.57 310.4L116.839 303.931L134.085 298.55C134.919 298.289 135.597 297.677 135.939 296.873C136.279 296.068 136.251 295.155 135.86 294.373L112.959 248.621C112.604 247.912 111.981 247.373 111.227 247.125C110.472 246.877 109.65 246.942 108.945 247.302C108.683 247.435 105.645 248.99 101.527 251.265L98.9693 246.314C105.286 243.043 111.391 240.086 114.99 238.371ZM126.053 207.26L128.287 210.6C129.203 211.968 131.053 212.332 132.417 211.419C133.783 210.503 134.149 208.655 133.234 207.288L131.13 204.144L143.466 196.578C144.867 195.718 145.306 193.884 144.447 192.482C144.085 191.891 143.544 191.482 142.941 191.259L163.562 191.985L120.924 227.052C118.833 223.187 116.551 219.011 114.113 214.584L126.053 207.26ZM116.761 167.776L126.741 188.898C127.269 190.016 128.379 190.746 129.615 190.789L141.072 191.193C140.826 191.266 140.583 191.359 140.353 191.5L111.231 209.364C106.193 200.262 100.616 190.298 94.8108 179.998C101.23 176.71 108.336 172.884 116.761 167.776ZM86.752 107.356L105.104 144.393C105.7 145.598 107.005 146.22 108.265 146.008C108.546 145.961 108.825 145.872 109.093 145.74C110.566 145.009 111.168 143.221 110.438 141.749L92.8515 106.254L110.728 103.024C112.523 106.028 114.516 109.158 116.728 112.376C127.894 128.613 131.413 140.6 132.402 144.934C113.758 157.87 100.644 165.122 89.6011 170.77C78.372 150.917 66.6506 130.408 56.5526 112.811L86.752 107.356ZM94.1427 65.9571C94.915 67.8162 95.6425 69.5662 96.302 71.1901C96.884 73.2906 99.9428 83.5955 107.586 97.5399L87.9923 101.08C87.928 101.088 87.8662 101.101 87.8032 101.115L53.404 107.329C40.6412 85.1139 31.0536 68.5609 29.4169 65.7363C29.2544 65.3664 28.7925 64.2568 28.2166 62.4522L89.5769 54.7693C91.1615 58.7775 92.723 62.5419 94.1427 65.9571ZM95.4364 40.2331C91.6549 29.4467 88.4397 17.7205 87.7801 6.77892L140.746 6.75224C141.488 10.3153 143.223 18.6555 145.21 28.3552L95.4364 40.2331ZM104.151 62.4619C104.073 62.2715 103.996 62.0859 103.917 61.8943C101.805 56.8116 99.3609 50.9272 97.0185 44.6184L146.138 32.8958C147.068 37.4486 148.025 42.1699 148.943 46.748L104.151 62.4619ZM151.138 57.8218C151.764 61.0247 152.567 63.2489 153.302 64.7685L143.449 68.1328L110.441 79.1738C107.597 72.4478 106.472 68.2528 106.452 68.1728C106.393 67.9448 106.319 67.7216 106.23 67.5058C106.131 67.2583 106.025 67.0012 105.922 66.749L149.858 51.3347C150.304 53.5735 150.733 55.7528 151.138 57.8218ZM163.819 41.5283L153.356 45.1993C152.44 40.6394 151.489 35.952 150.569 31.4442L159.407 28.0035L166.753 40.4635L163.819 41.5283ZM157.733 63.2562C157.166 62.2254 156.336 60.2813 155.682 56.9341C155.24 54.6613 154.765 52.2601 154.272 49.7848L165.374 45.8918L168.423 44.7846L171.861 58.4318L157.733 63.2562ZM175.191 72.2804L118.49 95.3205C116 90.9837 113.965 86.9694 112.325 83.4282L144.932 72.5218L172.348 63.1604L175.191 72.2804ZM183.284 68.9914L179.663 70.4625L172.799 43.1959L183.864 39.1792L191.017 64.4193C187.68 66.5549 185.023 68.1388 183.284 68.9914ZM204.876 90.1893C198.636 94.0799 192.986 98.0262 188.21 101.98C169.709 117.29 154.462 129.091 141.609 138.402C139.561 131.634 135.081 120.384 125.449 106.376C124.074 104.375 122.789 102.41 121.589 100.491L185.618 74.4707C185.678 74.4464 185.738 74.4209 185.796 74.3918C187.492 73.5696 190.005 72.0936 193.132 70.1156L204.876 90.1893ZM209.968 87.1028L198.135 66.8763C206.468 61.3764 217.456 53.6936 228.785 45.6153L244.201 69.411C232.179 74.98 220.407 80.9493 209.968 87.1028ZM272.531 144.814L267.438 107.362C269.295 106.758 271.091 106.043 272.796 105.197C273.397 104.9 274.015 104.616 274.642 104.342L278.527 143.885L272.531 144.814ZM272.791 195.833L273.282 216.626C273.282 216.669 273.283 216.711 273.285 216.754L273.683 233.618L266.418 234.318L263.79 195.517L272.791 195.833ZM253.902 188.546C253.989 188.209 254.017 187.851 253.979 187.483L245.837 110.372C250.984 110.32 256.428 109.931 261.634 108.874L272.56 189.203L253.902 188.546ZM245.847 194.884L257.808 195.306L260.49 234.887L249.213 235.975C249.142 235.787 249.053 235.608 248.948 235.444L245.847 194.884ZM210.193 251.085C210.623 249.965 211.146 248.731 211.697 247.424C211.962 246.801 212.234 246.157 212.511 245.491L244.057 242.455L246.093 260.16L208.796 264.067C208.66 259.175 208.958 254.292 210.193 251.085ZM190.06 140.906L179.043 123.093C184.072 119.069 189.367 114.762 194.957 110.137C198.065 107.563 201.593 104.981 205.449 102.408C206.836 105.225 208.518 109.715 209.403 116.132C209.827 119.201 211.383 124.357 213.432 130.251L190.06 140.906ZM215.45 135.875C219.377 146.541 224.167 158.159 226.6 163.962L199.495 167.005L193.317 146.371C193.282 146.252 193.24 146.137 193.19 146.024L215.45 135.875ZM232.769 163.269C229.306 155.043 216.543 124.317 215.302 115.319C215.165 114.325 215.008 113.376 214.839 112.461C215.738 111.442 218.516 108.984 224.169 109.275C225.395 109.338 226.936 109.461 228.718 109.603C231.784 109.847 235.615 110.151 239.843 110.297L245.286 161.864L232.769 163.269ZM224.412 187.508L221.065 170.575L231.18 169.441C231.209 169.438 231.237 169.435 231.268 169.43L245.912 167.786L248.058 188.11C248.066 188.191 248.092 188.264 248.105 188.342L224.412 187.508ZM205.432 186.838L201.229 172.802L215.127 171.242L218.299 187.292L216.702 187.236C216.609 187.228 216.513 187.226 216.417 187.226L205.432 186.838ZM219.723 193.963L239.861 194.673L243.062 236.565L214.926 239.276C218.285 229.754 221.348 216.107 219.723 193.963ZM131.138 182.715L122.421 164.271C129.148 160.022 136.681 154.972 145.289 148.802L153.587 165.933L131.138 182.715ZM156.232 171.391L162.991 185.344L138.71 184.489L156.232 171.391ZM178.502 169.373C177.741 167.915 175.944 167.35 174.487 168.108L163.925 173.616L150.185 145.255C157.465 139.931 165.472 133.842 174.35 126.825L187.727 148.457L194.491 171.05C194.501 171.083 194.509 171.115 194.52 171.148L199.151 186.618L169.722 185.581L166.521 178.977L177.237 173.39C178.695 172.63 179.261 170.831 178.502 169.373ZM194.553 248.946C195.768 250.053 197.65 249.964 198.757 248.749L204.292 242.664L206.781 243.757C206.589 244.219 206.399 244.668 206.214 245.106C205.643 246.458 205.103 247.736 204.637 248.945C200.812 258.884 204.138 278.351 204.437 280.047L204.665 281.962L194.536 285.105L185.924 192.774L213.736 193.752C215.437 215.857 212.289 229.09 208.973 238.216L204.725 236.351C203.554 235.838 202.186 236.129 201.326 237.073L194.354 244.739C193.247 245.956 193.337 247.84 194.553 248.946ZM299.821 146.068L307.876 144.852C307.888 144.85 307.902 144.847 307.914 144.846C308.608 144.73 309.211 144.245 309.618 143.67C310.033 143.083 310.176 142.258 310.041 141.552L302.441 101.275C302.169 99.8381 300.758 98.9079 299.351 99.1711C297.914 99.4415 296.972 100.837 297.243 102.275L304.341 139.885L298.776 140.747L290.715 99.6671C297.976 98.3015 303.777 97.9644 303.88 97.9583C303.964 97.9535 304.047 97.945 304.13 97.934L308.465 97.2828C311.788 114.363 315.083 133.079 317.888 149.033C319.062 155.698 320.155 161.916 321.141 167.388C322.207 173.301 323.486 181.401 324.842 190.449C319.035 190.439 314.092 190.458 310.341 190.471L308.716 190.477L308.127 190.457L308.001 187.946C307.997 187.853 307.99 187.76 307.978 187.665V187.663C307.978 187.661 307.977 187.658 307.977 187.656C307.966 187.577 307.954 187.498 307.937 187.422L299.821 146.068ZM284.42 142.971L280.414 102.196C281.902 101.729 283.406 101.31 284.896 100.937L292.889 141.659L284.42 142.971ZM288.869 188.261L284.945 148.314L293.929 146.956L302.063 188.406L302.156 190.246L288.617 189.77C288.823 189.31 288.922 188.797 288.869 188.261ZM270.821 77.0733C269.839 77.4892 269.255 78.531 269.435 79.5934C269.552 80.2907 269.982 80.8971 270.602 81.2379C271.063 81.4914 271.594 81.5775 272.102 81.4926C272.239 81.4683 272.374 81.4344 272.505 81.3859C273.735 80.9468 284.629 77.0163 290.238 73.6181C291.333 72.9547 291.682 71.5309 291.02 70.437C290.357 69.3419 288.93 68.9926 287.84 69.6548C286.709 70.3412 285.317 71.0592 283.819 71.7686L280.722 65.2694C287.335 62.605 293.704 60.1321 299.617 57.8958C302.053 66.3464 304.742 78.5249 307.442 92.0825L303.467 92.6804C301.603 92.7907 283.416 94.0192 270.444 100.455C262.83 104.232 252.846 105.135 243.93 105.085C243.43 104.825 242.852 104.703 242.251 104.766C241.915 104.802 241.602 104.905 241.31 105.043C236.675 104.924 232.441 104.59 229.139 104.325C227.315 104.181 225.742 104.055 224.441 103.988C219.339 103.726 215.779 105.174 213.472 106.724C212.531 103.546 211.455 101.04 210.486 99.1638C229.181 87.5297 253.899 76.2413 276.424 67.0158L279.482 73.4325L270.821 77.0721V77.0733ZM101.633 333.293L102.873 337.931C102.355 338.137 101.837 338.343 101.319 338.552C88.2784 343.801 81.4151 342.912 77.9549 341.24C75.1749 339.898 74.1783 337.795 73.9261 337.14C74.479 336.315 77.2833 333.188 89.252 330.34C108.28 325.815 141.299 313.724 153.065 309.328C155.206 313.132 157.176 316.699 158.823 319.833C148.84 322.474 128.634 328.15 108.459 335.77L107.384 331.754C106.96 330.165 105.332 329.224 103.74 329.648C102.152 330.072 101.209 331.704 101.633 333.293ZM293.503 329.348C290.007 329.757 286.119 330.215 281.933 330.712L280.167 255.974L288.463 255.779L293.503 329.348ZM291.203 249.757C291.181 249.758 291.16 249.758 291.138 249.759L280.026 250.022L279.701 236.288C279.701 236.262 279.7 236.237 279.7 236.211L279.321 220.137L306.239 224.571C307.127 224.717 308.034 224.453 308.707 223.853C309.378 223.253 309.741 222.381 309.696 221.482L308.463 197.09L308.549 197.092C308.59 197.093 308.633 197.095 308.675 197.095L310.365 197.089C311.896 197.084 313.628 197.078 315.536 197.072L311.405 249.395C310.982 249.368 310.589 249.342 310.251 249.32C310.16 249.314 310.069 249.311 309.977 249.314L291.203 249.757ZM342.19 -1.2035C342.314 0.236048 342.866 1.38575 343.853 2.23105C345.824 3.91679 349.057 3.92043 353.733 2.24318C355.437 1.63316 356.998 0.918837 358.044 0.408262L381.415 17.4355C359.964 25.1438 341.637 31.7158 332.252 35.0521C329.294 27.9138 326.323 20.5414 323.738 13.6953C328.618 10.0801 332.718 6.58124 335.932 3.82947C338.261 1.8369 340.843 -0.371548 342.19 -1.2035ZM347.033 -3.44227C352.111 -5.97816 362.178 -10.9857 372.099 -15.8101C382.171 -20.7096 389.613 -24.217 394.221 -26.235C394.566 -26.3854 394.847 -26.617 395.07 -26.8887L411.653 6.56305C403.163 9.61679 394.744 12.6451 386.683 15.5424L368.829 1.19777L359.621 -4.17357C358.898 -4.70112 357.936 -4.76297 357.149 -4.33487C352.608 -1.8584 347.697 -0.588631 346.87 -1.28112C346.867 -1.28597 346.601 -1.80261 347.033 -3.44227ZM-10.621 134.011C-9.86936 134.282 -9.04008 134.239 -8.3175 133.894L19.3044 120.612C20.7847 119.898 21.4091 118.119 20.6962 116.637C19.9845 115.155 18.2047 114.531 16.7244 115.244L-8.16595 127.213C-9.16375 125.045 -10.6077 121.919 -12.179 118.569L-2.03975 113.894C-1.29534 113.552 -0.72794 112.918 -0.464851 112.142C-0.202975 111.367 -0.272081 110.519 -0.655196 109.795L-14.0218 84.5633V97.2828L-7.38881 109.803L-14.0218 112.861V128.731C-13.4192 130.037 -12.8446 131.291 -12.3147 132.448C-11.9838 133.175 -11.3727 133.739 -10.621 134.011ZM447.255 -6.24982C437.585 -2.76797 427.436 0.88488 417.293 4.53409L401.473 -27.3774H385.55C381.387 -25.4358 376.216 -22.9642 370.074 -19.9759C360.294 -15.2194 350.372 -10.2859 345.21 -7.70999C344.982 -7.70878 344.751 -7.67604 344.525 -7.6057L327.372 -2.2004L318.705 -0.621376C317.684 -3.86067 316.893 -6.73614 316.42 -9.07435C315.838 -11.9498 315.181 -14.6652 314.544 -17.2908C313.551 -21.3973 312.817 -24.7057 312.478 -27.3774H307.156C307.169 -27.2477 307.179 -27.1191 307.195 -26.9881L295.79 -25.3945L295.741 -27.3774H291.109L291.172 -24.7494L280.653 -23.2795C280.235 -24.6317 279.823 -26.0009 279.412 -27.3774H268.37C269.161 -24.6596 269.965 -21.9818 270.781 -19.3538C270.394 -19.6327 269.926 -19.8013 269.422 -19.7988L231.585 -19.6363C230.906 -19.6327 230.258 -19.3441 229.819 -18.8226C229.382 -18.3011 229.191 -17.6425 229.307 -16.9707L232.405 1.04739C228.659 1.04254 224.557 1.07165 220.321 1.1626L220.206 -3.70908L228.051 -4.20631C229.329 -4.2815 230.298 -5.38755 230.218 -6.66338C230.135 -7.94042 229.036 -8.90942 227.759 -8.82938L213.727 -7.94042C212.49 -7.86401 211.537 -6.82831 211.558 -5.59129C211.578 -4.35548 212.565 -3.35253 213.802 -3.31372L215.584 -3.25914L215.692 1.2863C197.966 1.85145 185.758 3.38439 179.381 5.84752C179.302 5.87784 179.214 5.91058 179.13 5.9409L161.587 -2.62123L169.803 -19.0942C174.271 -18.3302 178.709 -17.7832 182.881 -17.5916C212.267 -16.2345 218.556 -16.5717 220.27 -19.5927C220.915 -20.7254 221.788 -23.8543 222.121 -27.3774H217.466C217.239 -25.1775 216.807 -23.1703 216.396 -22.1953C214.109 -21.2627 204.283 -21.39 194.93 -21.7199L195.317 -27.3774H190.012L189.64 -21.9248C187.263 -22.0255 185.028 -22.1286 183.095 -22.2183C179.314 -22.393 175.301 -22.8732 171.247 -23.5439C171.456 -24.6572 171.676 -25.9779 171.857 -27.3774H167.166C167.033 -26.3987 166.874 -25.3885 166.685 -24.3722C162.314 -25.2381 157.979 -26.2835 153.915 -27.3774H138.007C144.799 -25.072 154.789 -22.0679 165.071 -19.9832L157.426 -4.65261L132.783 -16.6784L133.048 -27.3774H129.741L129.489 -17.1841C124.257 -17.1962 106.824 -17.2375 88.3609 -17.2969C88.4603 -20.4853 88.5573 -23.8713 88.653 -27.3774H78.0652C77.9695 -23.8786 77.8713 -20.5047 77.7731 -17.3321C69.6028 -17.36 61.6556 -17.3927 54.8916 -17.4255L56.6654 -27.3774H51.9613L50.1924 -17.4497C42.8381 -17.491 37.5302 -17.5346 35.9541 -17.5783C31.9023 -17.6886 28.0117 -16.2891 25.0244 -14.7768C23.5077 -18.5606 21.2199 -22.5724 17.9174 -27.3774H4.86845C10.3533 -20.1057 13.4813 -15.1418 15.2089 -10.7504C17.9489 -3.78306 17.1851 2.41054 15.6624 14.7529C15.4611 16.3828 15.2477 18.1086 15.0295 19.9447C12.7259 39.3453 14.8658 53.4595 17.002 61.7718L-14.0218 64.1682V68.8143L13.6098 66.6799C13.628 66.8557 13.6571 67.0316 13.708 67.2074L17.7161 81.0439L10.2854 82.464C10.2515 82.4701 10.2175 82.4773 10.1824 82.4834L-2.36588 84.8823L-11.0781 70.6589C-11.7146 69.6196 -12.887 69.1115 -14.0218 69.2679V77.2528L-6.36676 89.7491C-5.72056 90.8054 -4.47907 91.3499 -3.27032 91.1183L8.89479 88.7934L13.7092 101.452L3.12988 107.038C1.67744 107.806 1.11974 109.608 1.88718 111.062C2.65463 112.516 4.45502 113.072 5.90989 112.305L18.817 105.49C20.147 104.787 20.7447 103.202 20.2112 101.797L14.8331 87.6583L19.3807 86.7887L27.1146 113.478L23.6835 114.509C22.8167 114.767 22.1159 115.409 21.7776 116.248C21.4394 117.087 21.5012 118.036 21.945 118.823L60.1037 186.493C59.3896 186.94 58.6791 187.385 57.9517 187.859C55.6918 189.332 53.3458 190.878 50.9247 192.48L16.1522 143.57C15.3423 142.432 13.8498 142.008 12.5659 142.554L-8.08957 151.302C-9.95544 149.298 -11.9316 147.115 -14.0218 144.733V153.652C-13.6266 154.081 -13.2301 154.517 -12.8458 154.933L-14.0218 156.29V165.386L-8.72728 159.273C-2.36588 165.827 2.56491 170.194 6.26997 173.475C11.8845 178.447 13.6631 180.13 13.7165 182.429L13.788 185.442C7.32354 187.188 -3.58797 192.873 -14.0218 199.16V211.666C-2.4459 204.341 11.2735 196.65 17.099 195.522C19.6863 197.765 24.3067 201.826 28.9223 206.92C14.0693 216.443 -2.0155 226.031 -14.0218 230.404V257.722C-8.18898 273.404 0.853016 303.726 4.33379 323.085C4.33621 323.099 4.33985 323.111 4.34227 323.123L-3.14059 323.811L-14.0218 266.363V298.352L-9.09585 324.357L-14.0218 324.809V330.79L-7.98167 330.236L-1.25169 365.769C-1.00436 367.073 0.0770864 368.058 1.3998 368.18L5.72076 368.579C6.72704 374.749 8.49471 380.433 11.5354 383.677C12.435 384.634 13.3115 385.505 14.1687 386.312C5.26005 388.046 -4.35783 391.767 -13.8351 395.433C-13.8981 395.458 -13.96 395.481 -14.0218 395.506V406.852C-12.6821 406.338 -11.346 405.823 -10.0173 405.308C9.0912 397.913 27.14 390.929 35.2546 400.77C37.4987 403.493 39.7671 406.129 42.027 408.673C37.2708 420.598 37.4829 429.754 38.0031 434.042H48.7133C48.7133 434.039 48.7121 434.035 48.7109 434.032C48.6248 433.68 47.3918 428.296 49.5498 419.6C50.2203 420.274 51.1841 420.61 52.148 420.446C52.325 420.417 52.502 420.371 52.6754 420.307L52.8366 420.248C58.176 425.7 63.1128 430.381 67.1246 434.042H83.1767C80.9944 432.216 73.2945 425.653 63.8063 416.245L71.4747 413.447C73.0193 412.885 73.8158 411.174 73.2521 409.628C72.6883 408.084 70.9764 407.284 69.4342 407.853L59.1968 411.588C57.6765 410.022 56.1295 408.397 54.5655 406.718C55.5682 404.814 56.7139 402.839 58.0475 400.793C59.3253 398.831 60.8954 396.698 62.4133 394.635C64.8053 391.381 67.064 388.31 68.6316 385.412C68.8378 385.028 69.0378 384.65 69.2318 384.269C76.905 383.528 86.4829 382.146 95.8037 379.951L110.08 434.042H116.236L101.571 378.47C103.467 377.941 105.329 377.377 107.144 376.774L124.194 434.042H130.407L112.744 374.719C115.764 373.49 118.561 372.133 121.019 370.64C128.676 365.986 138.249 362.957 150.409 360.392L156.743 380.842C156.749 380.864 156.757 380.883 156.763 380.904L170.013 423.682C168.621 424.294 167.783 424.662 167.738 424.68C167.612 424.736 167.487 424.796 167.366 424.862C160.66 428.448 154.287 431.507 148.25 434.042H172.754C175.492 432.841 184.829 428.734 193.59 424.789C195.125 429.52 196.129 432.608 196.336 433.246C196.426 433.517 196.535 433.78 196.666 434.034C196.667 434.038 196.67 434.04 196.671 434.042H209.452C208.231 432.622 207.147 431.175 206.261 429.537C205.891 428.401 204.819 425.104 203.283 420.365C204.361 419.863 205.365 419.391 206.263 418.963C217.204 413.741 229.448 411.046 243.452 410.794L244.438 434.042H288.6C298.781 432.355 307.246 430.658 309.133 430.069C316.272 427.846 404.647 414.501 411.501 415.382C411.977 415.542 412.471 415.576 412.942 415.494C413.857 415.34 414.689 414.762 415.126 413.864C415.847 412.386 415.233 410.603 413.755 409.882C412.52 409.279 410.219 408.157 360.706 415.496C337.846 418.884 310.957 423.265 307.363 424.383C301.127 426.328 260.783 432.975 250.32 432.217L249.413 410.835C250.9 410.88 252.4 410.939 253.927 411.035C258.32 411.308 263.248 411.42 268.386 411.418L268.841 426.373C268.891 428.016 270.263 429.309 271.907 429.258C272.045 429.253 272.182 429.24 272.314 429.218C273.758 428.974 274.837 427.696 274.791 426.191L274.34 411.37C295.421 411.047 317.871 409.203 320.569 408.975C330.333 408.914 349.724 407.021 368.536 404.075C368.562 404.071 368.586 404.07 368.613 404.066C368.628 404.064 368.641 404.06 368.656 404.058C380.359 402.222 391.83 399.981 400.612 397.52C410.476 394.754 427.094 391.026 447.255 390.126V379.536C430.565 380.233 413.685 382.859 397.755 387.324C390.611 389.328 381.346 391.215 371.6 392.844C369.238 383.994 363.887 363.469 358.986 341.147C370.965 340.811 384.5 339.715 401.435 337.853C413.87 336.485 430.378 335.921 447.255 335.794V325.185C430.093 325.32 413.204 325.907 400.28 327.328C382.705 329.261 368.909 330.351 356.737 330.602C354.752 320.998 352.944 311.349 351.575 302.41C349.969 291.921 348.175 279.461 346.331 266.43C350.209 266.043 358.47 265.656 367.687 267.881C374.996 269.647 391.908 271.759 407.901 272.901C418.262 273.642 436.014 274.519 447.255 272.917V268.238C428.328 271.224 382.063 266.589 368.774 263.378C358.73 260.953 349.853 261.402 345.682 261.837C344.775 255.4 343.86 248.866 342.955 242.396L348.433 242.267C348.563 242.264 348.689 242.252 348.814 242.23C350.053 242.022 350.998 240.952 351.017 239.66L351.235 224.718C352.821 225.137 354.629 225.213 356.265 224.309C358.636 223.002 359.738 220.197 359.537 215.974C359.262 210.193 359.195 206.718 359.189 204.785L367.306 203.405C368.011 203.285 368.635 202.887 369.04 202.299C369.445 201.712 369.596 200.985 369.458 200.284C369.451 200.248 369.288 199.405 368.983 197.728C372.416 197.834 375.884 197.957 379.361 198.1L378.52 202.365C378.341 203.262 378.926 204.132 379.82 204.309C380.716 204.485 381.586 203.904 381.764 203.007L382.705 198.244C385.698 198.377 388.692 198.524 391.67 198.689L391.845 207.905C391.862 208.82 392.617 209.546 393.53 209.528C393.613 209.527 393.695 209.518 393.775 209.506C394.569 209.371 395.167 208.673 395.152 207.845L394.983 198.88C397.453 199.027 399.909 199.187 402.339 199.358L402.542 207.892C402.572 209.17 403.633 210.182 404.911 210.153C405.025 210.15 405.135 210.139 405.244 210.121C406.361 209.932 407.199 208.948 407.172 207.783L406.979 199.703C408.51 199.823 410.028 199.95 411.532 200.08L411.139 207.416C411.071 208.694 412.051 209.784 413.327 209.853C414.61 209.922 415.696 208.941 415.764 207.664L416.146 200.506C418.389 200.723 420.588 200.956 422.739 201.202L421.247 207.164C421.071 207.865 421.232 208.609 421.683 209.174C422.134 209.738 422.824 210.06 423.547 210.042L429.878 209.893L427.113 251.955C427.03 253.231 427.995 254.335 429.271 254.418C429.456 254.431 429.635 254.421 429.81 254.391C430.844 254.217 431.662 253.351 431.733 252.26L434.664 207.67C434.708 207.021 434.475 206.384 434.025 205.915C433.575 205.446 432.95 205.187 432.3 205.203L426.476 205.34L427.373 201.766C433.22 202.522 438.626 203.396 443.38 204.411C444.682 204.688 445.975 204.953 447.255 205.208V198.451C446.75 198.347 446.25 198.252 445.742 198.145C446.143 196.066 446.583 192.968 446.863 188.526C447.047 185.582 447.142 182.393 447.152 178.981C447.188 178.984 447.221 178.987 447.255 178.99V174.337C447.206 174.332 447.159 174.327 447.111 174.323C446.924 164.481 446.091 152.957 444.609 139.856C444.588 139.67 444.544 139.488 444.489 139.314C444.516 139.133 444.532 138.951 444.524 138.763L444.178 129.08L447.255 129.171V123.213L443.357 123.098C443.032 119.281 442.686 115.545 442.322 111.895C443.669 111.943 445.34 111.968 447.255 111.975V106.035C444.892 106.03 442.993 105.998 441.701 105.93C441.323 102.427 440.926 99.0086 440.519 95.6759L447.255 95.8263V90.5362L439.85 90.37C439.24 85.6875 438.607 81.1882 437.962 76.8768C439.639 76.8028 442.957 76.6682 447.255 76.5627V71.2544C442.294 71.3793 438.61 71.543 437.152 71.6134C434.753 56.4065 432.224 43.7816 430.049 34.0941L447.255 26.6731V21.6305L428.994 29.5049C427.047 21.2169 425.495 15.6491 424.753 13.1011C432.355 10.3663 439.92 7.64241 447.255 5.00222V-6.24982Z" fill="#D3D9E3"/>
</g>
<mask id="mask7" mask-type="alpha" maskUnits="userSpaceOnUse" x="11" y="13" width="411" height="284">
<path fill-rule="evenodd" clip-rule="evenodd" d="M12.0451 36.9417L11.4668 295.592L93.451 271.81L175.33 295.959L257.318 272.178L339.196 296.326L421.155 284.528L421.735 25.8765L339.776 37.6755L257.897 13.5269L175.91 37.3092L94.0317 13.1594" fill="white"/>
</mask>
<g mask="url(#mask7)">
<path fill-rule="evenodd" clip-rule="evenodd" d="M345.682 261.837L352.117 337.721L447.255 331.953V272.853C447.255 272.853 434.018 270.528 409.247 271.257C386.589 271.922 345.682 261.837 345.682 261.837Z" fill="#697882"/>
</g>
<mask id="mask8" mask-type="alpha" maskUnits="userSpaceOnUse" x="11" y="13" width="411" height="284">
<path fill-rule="evenodd" clip-rule="evenodd" d="M12.0451 36.9417L11.4668 295.592L93.451 271.81L175.33 295.959L257.318 272.178L339.196 296.326L421.155 284.528L421.735 25.8765L339.776 37.6755L257.897 13.5269L175.91 37.3092L94.0317 13.1594" fill="white"/>
</mask>
<g mask="url(#mask8)">
<path d="M-14.0213 236.209C-14.0213 236.209 8.26363 227.557 34.6004 210.255C60.9359 192.951 107.636 167.251 121.479 158.921C155.497 138.449 182.849 110.18 210.136 93.4859C244.763 72.3037 305.384 50.1828 356.662 31.8385C406.344 14.0655 447.255 -0.269432 447.255 -0.269432" stroke="#C7CEDC" stroke-width="2" stroke-dasharray="6 8"/>
</g>
<g style="mix-blend-mode:multiply" opacity="0.04">
<path fill-rule="evenodd" clip-rule="evenodd" d="M1.59396 27.7377L94.0085 0.945343L93.3815 281.204L0.964478 307.996L1.59396 27.7377Z" fill="black"/>
</g>
<g style="mix-blend-mode:multiply" opacity="0.04">
<path fill-rule="evenodd" clip-rule="evenodd" d="M340.593 25.6766L338.486 305.499L431.612 292.099L432.239 12.4896L340.593 25.6766Z" fill="black"/>
</g>
<g style="mix-blend-mode:multiply" opacity="0.04">
<path fill-rule="evenodd" clip-rule="evenodd" d="M175.921 25.0911L175.293 305.35L257.312 281.57L257.942 1.31325L175.921 25.0911Z" fill="black"/>
</g>
<g filter="url(#filter0_d)">
<path fill-rule="evenodd" clip-rule="evenodd" d="M218 130.427C209.355 130.427 202.346 123.372 202.346 114.67C202.346 105.968 209.355 98.9139 218 98.9139C226.645 98.9139 233.653 105.968 233.653 114.67C233.653 123.372 226.645 130.427 218 130.427ZM217.364 89.0077C202.454 89.3635 190.655 101.816 191.008 116.825C191.36 131.833 218.639 171 218.639 171C218.639 171 245.349 130.549 244.997 115.54C244.644 100.531 232.275 88.6532 217.364 89.0077Z" fill="#2BC866"/>
</g>
<defs>
<filter id="filter0_d" x="186" y="89" width="64" height="94" filterUnits="userSpaceOnUse" color-interpolation-filters="sRGB">
<feFlood flood-opacity="0" result="BackgroundImageFix"/>
<feColorMatrix in="SourceAlpha" type="matrix" values="0 0 0 0 0 0 0 0 0 0 0 0 0 0 0 0 0 0 127 0"/>
<feOffset dy="7"/>
<feGaussianBlur stdDeviation="2.5"/>
<feColorMatrix type="matrix" values="0 0 0 0 0 0 0 0 0 0 0 0 0 0 0 0 0 0 0.15 0"/>
<feBlend mode="normal" in2="BackgroundImageFix" result="effect1_dropShadow"/>
<feBlend mode="normal" in="SourceGraphic" in2="effect1_dropShadow" result="shape"/>
</filter>
</defs>
</svg>
