<svg width="320" height="574" viewBox="0 0 320 574" fill="none" xmlns="http://www.w3.org/2000/svg">
<path fill-rule="evenodd" clip-rule="evenodd" d="M0 0H320V574H0V0Z" fill="#2BC866"/>
<mask id="mask0" mask-type="alpha" maskUnits="userSpaceOnUse" x="0" y="0" width="320" height="574">
<path fill-rule="evenodd" clip-rule="evenodd" d="M0 0H320V574H0V0Z" fill="white"/>
</mask>
<g mask="url(#mask0)">
<g style="mix-blend-mode:multiply" opacity="0.12">
<path fill-rule="evenodd" clip-rule="evenodd" d="M117.707 419.102L181.793 456.102L386.293 101.898L322.207 64.8978L117.707 419.102Z" fill="url(#paint0_linear)"/>
</g>
<g opacity="0.12">
<path fill-rule="evenodd" clip-rule="evenodd" d="M133.352 325.277L182.501 290.862L-7.35234 19.723L-56.5015 54.1376L133.352 325.277Z" fill="url(#paint1_linear)" style="mix-blend-mode:multiply"/>
</g>
<g opacity="0.12">
<path fill-rule="evenodd" clip-rule="evenodd" d="M183.372 623.802L244.809 580.784L5.62751 239.198L-55.8089 282.216L183.372 623.802Z" fill="url(#paint2_linear)" style="mix-blend-mode:multiply"/>
</g>
</g>
<defs>
<linearGradient id="paint0_linear" x1="117.707" y1="419.102" x2="322.207" y2="64.8978" gradientUnits="userSpaceOnUse">
<stop stop-color="white"/>
<stop offset="1" stop-color="#42A5CB"/>
</linearGradient>
<linearGradient id="paint1_linear" x1="133.352" y1="325.277" x2="-56.5015" y2="54.1376" gradientUnits="userSpaceOnUse">
<stop stop-color="white"/>
<stop offset="1" stop-color="#42A5CB"/>
</linearGradient>
<linearGradient id="paint2_linear" x1="183.372" y1="623.802" x2="-55.8089" y2="282.216" gradientUnits="userSpaceOnUse">
<stop stop-color="white"/>
<stop offset="1" stop-color="#42A5CB"/>
</linearGradient>
</defs>
</svg>
