<svg width="38" height="38" viewBox="0 0 38 38" fill="none" xmlns="http://www.w3.org/2000/svg">
<path fill-rule="evenodd" clip-rule="evenodd" d="M20.9173 25.3302H18.0947C17.7121 25.3302 17.401 25.645 17.401 26.0318C17.401 26.4188 17.7121 26.7335 18.0947 26.7335H20.9173C21.2998 26.7335 21.6109 26.4188 21.6109 26.0318C21.6109 25.645 21.2998 25.3302 20.9173 25.3302Z" fill="#3598DC"/>
<path fill-rule="evenodd" clip-rule="evenodd" d="M21.1746 7.08728H4.64612C4.25072 7.08728 3.9292 7.40201 3.9292 7.7889C3.9292 8.17585 4.25072 8.49058 4.64612 8.49058H21.1746C21.57 8.49058 21.8915 8.17585 21.8915 7.7889C21.8915 7.40201 21.57 7.08728 21.1746 7.08728Z" fill="#3598DC"/>
<mask id="mask0" mask-type="alpha" maskUnits="userSpaceOnUse" x="0" y="4" width="38" height="30">
<path fill-rule="evenodd" clip-rule="evenodd" d="M0 4.00302H37.6085V33.4694H0V4.00302Z" fill="white"/>
</mask>
<g mask="url(#mask0)">
<path fill-rule="evenodd" clip-rule="evenodd" d="M36.0861 20.7123V22.1162H35.2484C34.9147 22.1162 34.6442 21.8455 34.6442 21.5117V20.7123H36.0861ZM33.663 28.2125C33.6544 28.1619 33.6463 28.1114 33.6361 28.0613L33.6359 28.0602C33.2077 25.9784 31.3547 24.4675 29.2297 24.4675C27.7103 24.4675 26.3303 25.2402 25.5104 26.4418V23.3107C25.5104 22.8934 25.1723 22.5551 24.7552 22.5551C24.3381 22.5551 24 22.8934 24 23.3107V28.2359L23.9766 28.2125H12.8121C12.8037 28.1619 12.7955 28.1114 12.7852 28.0613L12.7851 28.0602C12.357 25.9784 10.5039 24.4675 8.37885 24.4675C6.25389 24.4675 4.40088 25.9784 3.97254 28.0611C3.96226 28.1113 3.95418 28.1619 3.94557 28.2125H1.51038V5.51427H23.9766V16.637H24V19.6596C24 20.0769 24.3381 20.4152 24.7552 20.4152C25.1723 20.4152 25.5104 20.0769 25.5104 19.6596V18.1483H34.9654C35.5638 18.1483 36.0526 18.6129 36.0941 19.2011H34.2666C33.641 19.2011 33.1338 19.7085 33.1338 20.3345V22.1162C33.1338 22.9509 33.8101 23.6274 34.6442 23.6274H36.0982V28.2125H33.663ZM32.1564 29.5714C31.872 30.9544 30.6412 31.9581 29.2297 31.9581C27.8182 31.9581 26.5874 30.9544 26.3032 29.5725C26.2627 29.3743 26.2422 29.1709 26.2422 28.9681C26.2422 28.7652 26.2627 28.5619 26.303 28.3648C26.5873 26.9823 27.8182 25.9788 29.2297 25.9788C30.6412 25.9788 31.8722 26.9823 32.1564 28.3648C32.1968 28.5627 32.2172 28.7656 32.2172 28.9681C32.2172 29.1709 32.1968 29.3743 32.1564 29.5714ZM11.3057 29.5714C11.0213 30.9544 9.79038 31.9581 8.37885 31.9581C6.9674 31.9581 5.73659 30.9544 5.45233 29.5725C5.41186 29.3743 5.39131 29.1709 5.39131 28.9681C5.39131 28.7652 5.41186 28.5619 5.45211 28.3648C5.73644 26.9823 6.96732 25.9788 8.37885 25.9788C9.79046 25.9788 11.0213 26.9823 11.3057 28.3648C11.346 28.5627 11.3664 28.7656 11.3664 28.9681C11.3664 29.1709 11.3459 29.3743 11.3057 29.5714ZM31.9296 13.0487L32.8263 16.637H25.487V13.0487H31.9296ZM25.5819 9.15125H31.1773C31.8029 9.15125 32.3101 9.65873 32.3101 10.2847V11.5374H25.5819V9.15125ZM35.343 16.637H34.3831L33.4193 12.7798C33.6645 12.572 33.8205 12.262 33.8205 11.9152V9.90687C33.8205 8.65495 32.8061 7.64 31.5549 7.64H25.487V5.13646C25.487 4.51042 24.9799 4.00302 24.3542 4.00302H1.13279C0.507187 4.00302 0 4.51042 0 5.13646V28.5903C0 29.2163 0.507187 29.7238 1.13279 29.7238H3.94565C3.95418 29.7746 3.96242 29.8255 3.97276 29.876C4.40096 31.9581 6.25397 33.4694 8.37885 33.4694C10.5038 33.4694 12.3568 31.9581 12.7852 29.875C12.7955 29.8249 12.8037 29.7742 12.8121 29.7238H24.7964C24.805 29.7746 24.8133 29.8255 24.8235 29.876C25.2518 31.9581 27.1048 33.4694 29.2297 33.4694C31.3546 33.4694 33.2077 31.9581 33.6361 29.875C33.6463 29.8249 33.6544 29.7742 33.663 29.7238H36.4758C37.1014 29.7238 37.6086 29.2163 37.6086 28.5903V18.9039C37.6086 17.652 36.5943 16.637 35.343 16.637Z" fill="#3598DC"/>
</g>
<path fill-rule="evenodd" clip-rule="evenodd" d="M29.1887 27.8562C28.5687 27.8562 28.066 28.3588 28.066 28.9788C28.066 29.5988 28.5687 30.1015 29.1887 30.1015C29.8087 30.1015 30.3113 29.5988 30.3113 28.9788C30.3113 28.3588 29.8087 27.8562 29.1887 27.8562Z" fill="#3598DC"/>
<path fill-rule="evenodd" clip-rule="evenodd" d="M8.41988 27.8562C7.79989 27.8562 7.29724 28.3588 7.29724 28.9788C7.29724 29.5988 7.79989 30.1015 8.41988 30.1015C9.03988 30.1015 9.54253 29.5988 9.54253 28.9788C9.54253 28.3588 9.03988 27.8562 8.41988 27.8562Z" fill="#3598DC"/>
</svg>
