<svg width="40" height="40" viewBox="0 0 40 40" fill="none" xmlns="http://www.w3.org/2000/svg">
<path fill-rule="evenodd" clip-rule="evenodd" d="M15.3824 15.644C15.3824 16.4801 14.7045 17.1579 13.8684 17.1579C13.0323 17.1579 12.3545 16.4801 12.3545 15.644C12.3545 14.8079 13.0323 14.1301 13.8684 14.1301C14.7045 14.1301 15.3824 14.8079 15.3824 15.644Z" fill="#C8CDDA"/>
<path fill-rule="evenodd" clip-rule="evenodd" d="M27.494 15.644C27.494 16.4801 26.8161 17.1579 25.98 17.1579C25.1439 17.1579 24.4661 16.4801 24.4661 15.644C24.4661 14.8079 25.1439 14.1301 25.98 14.1301C26.8161 14.1301 27.494 14.8079 27.494 15.644Z" fill="#C8CDDA"/>
<path fill-rule="evenodd" clip-rule="evenodd" d="M11.3967 22.4011C11.7547 22.2387 12.1787 22.3768 12.3693 22.7206C13.8806 25.4463 16.775 27.1729 19.9243 27.1729C23.0736 27.1729 25.968 25.4463 27.4793 22.7206C27.67 22.3768 28.0939 22.2388 28.4519 22.4011C28.8526 22.5829 29.0175 23.0683 28.8042 23.4532C27.0283 26.6573 23.6261 28.6869 19.9243 28.6869C16.2225 28.6869 12.8204 26.6573 11.0444 23.4532C10.831 23.0683 10.996 22.5828 11.3967 22.4011Z" fill="#C8CDDA"/>
<path fill-rule="evenodd" clip-rule="evenodd" d="M29.9826 34.3825C29.8322 34.3825 29.6858 34.4282 29.5606 34.5116C28.6571 35.113 27.6992 35.6297 26.6919 36.0561C24.5446 36.965 22.2653 37.426 19.9174 37.426C17.569 37.426 15.2904 36.9651 13.145 36.0563C11.0742 35.179 9.21368 33.9238 7.61541 32.3254C4.32568 29.0357 2.51394 24.6612 2.51394 20.0078C2.51394 15.3538 4.3253 10.9793 7.61427 7.69029C9.21315 6.09187 11.0739 4.83658 13.1449 3.95932C15.2904 3.05043 17.5691 2.58966 19.9174 2.58966C22.2654 2.58966 24.5449 3.0505 26.6923 3.95948C28.7638 4.83628 30.6283 6.09141 32.234 7.68998C33.8328 9.2962 35.0879 11.1609 35.9648 13.2327C36.8737 15.3804 37.3347 17.6598 37.3347 20.0078C37.3347 22.3558 36.8737 24.6353 35.9648 26.7829C35.3383 28.2632 34.5181 29.6375 33.5176 30.8875C33.1231 31.3804 33.4805 32.1116 34.1119 32.1116C34.3435 32.1116 34.5616 32.0048 34.7061 31.8238C37.2946 28.5804 38.8486 24.475 38.8486 20.0078C38.8486 14.7838 36.7244 10.054 33.3047 6.61963C29.8711 3.19993 25.1414 1.07571 19.9174 1.07571C14.6934 1.07571 9.96452 3.19993 6.54391 6.61963C3.10953 10.054 1 14.7838 1 20.0078C1 25.2327 3.11044 29.9616 6.54482 33.3959C9.96452 36.8156 14.6934 38.9399 19.9174 38.9399C23.7965 38.9399 27.4023 37.7681 30.408 35.7647C31.028 35.3514 30.7283 34.3825 29.9832 34.3825H29.9826Z" fill="#C8CDDA"/>
</svg>
