<svg width="30" height="39" viewBox="0 0 30 39" fill="none" xmlns="http://www.w3.org/2000/svg">
<path fill-rule="evenodd" clip-rule="evenodd" d="M24.718 9.71832H8.62629C8.15141 9.71832 7.76501 10.0825 7.76501 10.5302C7.76501 10.9779 8.15141 11.3422 8.62629 11.3422H24.718C25.1928 11.3422 25.5792 10.9779 25.5792 10.5302C25.5792 10.0825 25.1928 9.71832 24.718 9.71832Z" fill="#C8CDDA"/>
<path fill-rule="evenodd" clip-rule="evenodd" d="M25.5791 14.8471C25.5791 14.3917 25.2494 14.0351 24.8285 14.0351H8.51577C8.09479 14.0351 7.76501 14.3917 7.76501 14.8471C7.76501 15.3023 8.09479 15.6589 8.51577 15.6589H24.8285C25.2494 15.6589 25.5791 15.3023 25.5791 14.8471Z" fill="#C8CDDA"/>
<path fill-rule="evenodd" clip-rule="evenodd" d="M24.718 18.3519H15.6156C15.1407 18.3519 14.7543 18.7162 14.7543 19.1638C14.7543 19.6115 15.1407 19.9757 15.6156 19.9757H24.718C25.1928 19.9757 25.5792 19.6115 25.5792 19.1638C25.5792 18.7162 25.1928 18.3519 24.718 18.3519Z" fill="#C8CDDA"/>
<path fill-rule="evenodd" clip-rule="evenodd" d="M24.8284 22.6688H19.1056C18.6846 22.6688 18.3547 23.0253 18.3547 23.4807C18.3547 23.936 18.6846 24.2926 19.1056 24.2926H24.8284C25.2494 24.2926 25.5791 23.936 25.5791 23.4807C25.5791 23.0253 25.2494 22.6688 24.8284 22.6688Z" fill="#C8CDDA"/>
<path fill-rule="evenodd" clip-rule="evenodd" d="M24.8283 26.9856H17.6935C17.2726 26.9856 16.9427 27.3422 16.9427 27.7974C16.9427 28.2528 17.2726 28.6094 17.6935 28.6094H24.8283C25.2494 28.6094 25.5791 28.2528 25.5791 27.7974C25.5791 27.3422 25.2494 26.9856 24.8283 26.9856Z" fill="#C8CDDA"/>
<mask id="mask0" mask-type="alpha" maskUnits="userSpaceOnUse" x="0" y="0" width="30" height="38">
<path fill-rule="evenodd" clip-rule="evenodd" d="M0 0.14035H29.9605V37.7346H0V0.14035Z" fill="white"/>
</mask>
<g mask="url(#mask0)">
<path fill-rule="evenodd" clip-rule="evenodd" d="M24.6662 2.17214L24.8198 2.32575L24.8196 2.3259L25.8679 3.37417L25.868 3.37409L27.9288 5.43515H24.6662V2.17214ZM29.2906 34.1377C28.9544 34.1053 28.6192 34.3053 28.5093 34.6624C28.4868 34.7362 28.4777 34.8128 28.4777 34.8903V36.252H4.86654V32.6256C5.11842 32.7309 5.37774 32.8233 5.64474 32.9023C9.95744 34.1813 14.4447 31.6038 15.5454 27.285C15.8756 25.9895 15.8628 24.685 15.5642 23.4692C15.4237 22.8933 14.7079 22.694 14.2944 23.1181C14.1123 23.3046 14.041 23.5715 14.1034 23.8242C14.3492 24.8263 14.3559 25.903 14.0732 26.9707C13.2153 30.2151 9.94391 32.261 6.65301 31.6045C6.01083 31.4767 5.41165 31.2572 4.86654 30.964C4.31383 30.6663 3.81609 30.2925 3.38376 29.8602C1.84098 28.3167 1.12594 26.0211 1.70263 23.7572C2.57248 20.3421 6.05895 18.2722 9.47331 19.1421C9.80414 19.2264 10.1221 19.3354 10.4259 19.4663C10.7086 19.5888 11.0371 19.5181 11.2523 19.2978C11.398 19.1489 11.4665 18.9602 11.4665 18.7737C11.4665 18.4888 11.3063 18.2091 11.0147 18.0835C10.6417 17.9226 10.2507 17.7888 9.84466 17.685C8.12504 17.2467 6.39083 17.4127 4.86654 18.0485V1.62289H23.1836V5.82349C23.1836 6.42793 23.6735 6.91778 24.278 6.91778H28.4777V31.2434C28.4777 31.3207 28.4864 31.3983 28.5087 31.4722C28.6175 31.8311 28.9539 32.0311 29.2907 31.9993C29.6662 31.9635 29.9604 31.6327 29.9604 31.2463V5.6756C29.9604 5.47748 29.8832 5.29124 29.7432 5.15131L24.9476 0.357403C24.8076 0.217403 24.6214 0.140335 24.4235 0.140335H4.47827C3.87399 0.140335 3.38399 0.63026 3.38399 1.23462V18.8613C1.80195 19.9622 0.612105 21.6425 0.17406 23.6896C-0.50421 26.8557 0.848496 30.04 3.38376 31.8129V36.6399C3.38376 37.2444 3.87399 37.7346 4.47857 37.7346H28.8658C29.4703 37.7346 29.9605 37.2444 29.9605 36.6399V34.8903C29.9605 34.5039 29.6665 34.1737 29.2906 34.1377Z" fill="#C8CDDA"/>
</g>
<path fill-rule="evenodd" clip-rule="evenodd" d="M12.6597 20.265L6.99778 27.0126L5.03335 23.6101C4.84477 23.2835 4.38808 23.2058 3.99387 23.4335C3.59959 23.6611 3.43846 24.0953 3.6271 24.422L6.19124 28.8631C6.20064 28.8794 6.21116 28.8947 6.22199 28.9098C6.25673 28.9614 6.29808 29.0091 6.34748 29.0507C6.69628 29.3433 7.25936 29.2269 7.62959 28.7857L13.9036 21.3087C14.2737 20.8676 14.2906 20.2927 13.9418 20.0002C13.593 19.7075 13.0299 19.8239 12.6597 20.265Z" fill="#C8CDDA"/>
</svg>
