<?xml version="1.0" encoding="utf-8"?>
<!-- Generator: Adobe Illustrator 16.0.3, SVG Export Plug-In . SVG Version: 6.00 Build 0)  -->
<!DOCTYPE svg PUBLIC "-//W3C//DTD SVG 1.1//EN" "http://www.w3.org/Graphics/SVG/1.1/DTD/svg11.dtd">
<svg version="1.1" id="Layer_1" xmlns="http://www.w3.org/2000/svg" xmlns:xlink="http://www.w3.org/1999/xlink" x="0px" y="0px"
	 width="119px" height="55px" viewBox="0 0 119 55" enable-background="new 0 0 119 55" xml:space="preserve">
<path d="M86.139,13.558v2.573c-1.357,0-2.459,1.152-2.459,2.573v7.97h-2.459v-7.97C81.221,15.862,83.422,13.558,86.139,13.558z"/>
<path d="M26.492,13.558c-1.493,0-2.832,0.675-3.748,1.744c-0.916-1.069-2.255-1.744-3.748-1.744c-2.76,0-4.997,2.304-4.997,5.146
	v7.97h2.499v-7.97c0-1.421,1.119-2.573,2.498-2.573s2.499,1.152,2.499,2.573v7.97h2.498v-7.97c0-1.421,1.119-2.573,2.499-2.573
	c1.379,0,2.498,1.152,2.498,2.573v7.97h2.499v-7.97C31.488,15.862,29.251,13.558,26.492,13.558z"/>
<defs>
	<filter id="Adobe_OpacityMaskFilter" filterUnits="userSpaceOnUse" x="47.909" y="7.037" width="4.891" height="19.03">
		<feColorMatrix  type="matrix" values="1 0 0 0 0  0 1 0 0 0  0 0 1 0 0  0 0 0 1 0"/>
	</filter>
</defs>
<mask maskUnits="userSpaceOnUse" x="47.909" y="7.037" width="4.891" height="19.03" id="mask0">
	<path fill="#FFFFFF" filter="url(#Adobe_OpacityMaskFilter)" d="M47.909,7.037H52.8v19.03h-4.891V7.037z"/>
</mask>
<g mask="url(#mask0)">
	<path d="M52.8,26.067v-2.489c-1.351,0-2.446-1.114-2.446-2.489V7.037h-2.445v14.052C47.909,23.839,50.099,26.067,52.8,26.067z"/>
</g>
<path d="M59.36,13.355c-0.896,0-1.735,0.246-2.459,0.672V7h-2.459v11.367v7.761H56.9v-7.761c0-1.384,1.102-2.505,2.459-2.505
	s2.459,1.122,2.459,2.505v7.761h2.459v-7.761C64.278,15.599,62.076,13.355,59.36,13.355z"/>
<path d="M39.413,16.033c1.668,0,3.086,1.072,3.602,2.565h-7.204C36.326,17.105,37.745,16.033,39.413,16.033z M45.574,18.598
	c-0.578-2.875-3.117-5.04-6.162-5.04s-5.584,2.166-6.162,5.04c-0.081,0.403-0.123,0.819-0.123,1.245s0.042,0.843,0.123,1.245
	c0.578,2.875,3.117,5.04,6.162,5.04c2.073,0,3.91-1.003,5.055-2.55l-1.991-1.471c-0.694,0.938-1.808,1.545-3.064,1.545
	c-1.668,0-3.086-1.072-3.602-2.564h9.764c0.081-0.402,0.123-0.818,0.123-1.245S45.655,19.001,45.574,18.598z"/>
<path d="M73.022,24.104c-2.202,0-3.987-1.786-3.987-3.988s1.785-3.988,3.987-3.988s3.987,1.786,3.987,3.988
	S75.225,24.104,73.022,24.104z M73.022,13.558c-3.622,0-6.558,2.936-6.558,6.558s2.936,6.558,6.558,6.558s6.558-2.936,6.558-6.558
	S76.645,13.558,73.022,13.558z"/>
<defs>
	<filter id="Adobe_OpacityMaskFilter_1_" filterUnits="userSpaceOnUse" x="40.232" y="12.465" width="64.487" height="36.07">
		<feColorMatrix  type="matrix" values="1 0 0 0 0  0 1 0 0 0  0 0 1 0 0  0 0 0 1 0"/>
	</filter>
</defs>
<mask maskUnits="userSpaceOnUse" x="40.232" y="12.465" width="64.487" height="36.07" id="mask1">
	<path fill="#FFFFFF" filter="url(#Adobe_OpacityMaskFilter_1_)" d="M0.36,54.779h118V0.755h-118V54.779z"/>
</mask>
<g mask="url(#mask1)">
	<path d="M81.221,41.43h2.186V28.86h-2.186V41.43z"/>
	<path d="M46.517,31.336c1.668,0,3.086,1.072,3.602,2.564h-7.204C43.431,32.408,44.849,31.336,46.517,31.336z M52.679,33.9
		c-0.578-2.875-3.117-5.04-6.162-5.04s-5.584,2.165-6.162,5.04c-0.081,0.402-0.123,0.818-0.123,1.245s0.042,0.843,0.123,1.245
		c0.578,2.875,3.117,5.039,6.162,5.039c2.073,0,3.91-1.003,5.055-2.55l-1.991-1.471c-0.694,0.938-1.808,1.546-3.064,1.546
		c-1.668,0-3.086-1.072-3.602-2.564h9.764c0.081-0.402,0.123-0.818,0.123-1.245S52.759,34.303,52.679,33.9z"/>
	<path d="M59.36,28.86c-2.717,0-4.918,2.304-4.918,5.146v7.971H56.9v-7.971c0-1.42,1.102-2.572,2.459-2.572s2.459,1.152,2.459,2.572
		v7.971h2.459v-7.971C64.278,31.164,62.076,28.86,59.36,28.86z"/>
	<path d="M91.604,39.406c-2.202,0-3.987-1.785-3.987-3.988c0-2.202,1.785-3.987,3.987-3.987c2.203,0,3.988,1.785,3.988,3.987
		C95.592,37.621,93.807,39.406,91.604,39.406z M91.604,28.86c-3.621,0-6.558,2.937-6.558,6.558c0,3.622,2.937,6.559,6.558,6.559
		c3.623,0,6.559-2.937,6.559-6.559C98.162,31.797,95.227,28.86,91.604,28.86z"/>
	<path d="M76.742,29.407l-3.719,9.063l-3.719-9.064l-2.84,0.001l5.404,12.569h2.309l5.402-12.569H76.742z"/>
	<path d="M86.139,13.558v2.573c-1.357,0-2.459,1.152-2.459,2.573v7.97h-2.459v-7.97C81.221,15.862,83.422,13.558,86.139,13.558z"/>
	<path d="M86.139,13.558v2.573c-1.357,0-2.459,1.152-2.459,2.573v7.97h-2.459v-7.97C81.221,15.862,83.422,13.558,86.139,13.558z"/>
	<path d="M104.706,28.551v-0.012c-0.058-0.744-0.33-1.456-0.81-2.116l-0.018-0.022c-1.345-1.759-3.553-1.917-5.582-1.966
		c0.971-1.424,2.243-3.467,2.287-6.095c0.046-1.858-0.525-3.477-1.605-4.559c-0.387-0.387-0.887-0.727-1.405-0.958
		c-0.526-0.233-1.058-0.35-1.624-0.354c-1.109-0.049-2.219,0.397-3.049,1.228c-0.855,0.856-1.121,1.869-1.356,2.762l-0.009,0.035
		l-0.004,0.015c-0.154,0.668-0.451,1.295-0.863,1.844l-0.594,0.792l-0.191,0.23l-0.037,0.047c-0.04,0.054-0.088,0.108-0.142,0.172
		c-0.063,0.073-0.133,0.155-0.208,0.252c-0.475,0.542-1.048,1.17-1.715,1.754l-0.021,0.018c-0.646,0.592-1.355,1.196-1.977,1.705
		v1.728v1.117c0,0,2.511-1.857,3.551-2.811c0.779-0.683,1.424-1.392,1.952-1.996l0.056-0.069c0.04-0.053,0.087-0.108,0.142-0.172
		c0.065-0.076,0.139-0.162,0.217-0.265l0.193-0.231l0.811-1.099c0.457-0.62,0.8-1.318,1.004-2.062
		c0.037-0.137,0.073-0.278,0.107-0.424c0.18-0.687,0.338-1.279,0.742-1.684c0.092-0.091,0.218-0.17,0.356-0.238
		c0.272-0.133,0.918-0.286,1.473-0.172c0.479,0.098,0.89,0.452,0.933,0.495c0.614,0.614,0.949,1.652,0.92,2.846v0.01
		c-0.035,2.143-1.236,3.883-2.112,5.153L96.023,23.6c-0.385,0.498-0.656,0.94-0.878,1.428l-0.692,1.526l1.67,0.128
		c0.297,0.023,0.586,0.034,0.865,0.045c0.271,0.01,0.525,0.02,0.776,0.04l0.065,0.003c1.836,0.038,3.422,0.071,4.178,1.045
		c0.217,0.303,0.335,0.596,0.359,0.898c0.031,0.474-0.031,0.934-0.184,1.366c-0.313,0.839-0.391,1.784-0.225,2.737
		c0.063,0.42,0.063,0.84,0,1.218l-0.003,0.019c-0.086,0.574-0.351,1.161-0.788,1.744c-0.143,0.188-0.341,0.49-0.488,0.857
		l-0.022,0.064c-0.121,0.361-0.187,0.777-0.187,1.171c0,0.374-0.181,0.921-0.343,1.336c-0.153,0.394-0.362,0.763-0.62,1.095
		c-0.213,0.275-0.479,0.588-0.693,0.74L98.764,41.1c-0.215,0.172-0.504,0.436-0.729,0.762l-0.042,0.043l-0.066,0.102
		c-0.848,1.298-1.369,2.096-2.16,2.752c-0.654,0.544-1.434,0.92-2.26,1.125c-0.252,0.063-0.496,0.114-0.736,0.148
		c-0.607,0.082-1.182,0.158-1.733,0.158c-2.026,0-4.026-0.244-5.944-0.723l-0.019-0.005c-1.067-0.249-2.485-0.554-3.983-0.698
		l-1.006-0.006L40.42,44.76c-0.243,0-0.253,0.361-0.011,0.375l40.511,1.969c1.337,0.133,2.629,0.411,3.611,0.641
		c2.102,0.524,4.289,0.791,6.505,0.791c0.709,0,1.39-0.092,2.049-0.18l0.011-0.002c0.33-0.047,0.932-0.196,1.418-0.324
		c0.582-0.154,1.141-0.389,1.658-0.699c1.738-1.045,2.514-2.201,3.65-3.939l0.133-0.183c0.025-0.042,0.111-0.146,0.253-0.261
		c0.694-0.502,1.26-1.151,1.685-1.93c0.604-0.926,0.922-2.006,0.922-3.128c0-0.128,0.022-0.278,0.057-0.396
		c0.04-0.092,0.104-0.197,0.173-0.29c0.67-0.895,1.084-1.835,1.229-2.794c0.104-0.629,0.104-1.289,0-1.961l-0.004-0.025
		c-0.095-0.541-0.055-1.085,0.112-1.531l0.007-0.018C104.652,30.134,104.76,29.352,104.706,28.551z"/>
</g>
</svg>
