<svg width="38" height="38" viewBox="0 0 38 38" fill="none" xmlns="http://www.w3.org/2000/svg">
<mask id="mask0" mask-type="alpha" maskUnits="userSpaceOnUse" x="0" y="1" width="38" height="35">
<path fill-rule="evenodd" clip-rule="evenodd" d="M0 1.07602H38V35.6184H0V1.07602Z" fill="white"/>
</mask>
<g mask="url(#mask0)">
<path fill-rule="evenodd" clip-rule="evenodd" d="M36.4783 24.5938C36.4767 24.8116 36.4039 25.0275 36.2733 25.2017L31.0994 32.1001C30.1608 33.3513 28.6667 34.0984 27.1025 34.0984H16.6698C14.1016 34.0984 12.1402 33.7083 10.4256 33.2512C10.4259 32.7725 10.4259 31.8893 10.4258 30.2354L10.4257 25.5432C11.6786 25.0831 13.5076 24.5058 14.2858 24.5058C14.8801 24.5058 16.4541 24.8938 17.8429 25.2363C19.4794 25.6398 20.8929 25.9882 21.6309 25.9882H25.969C26.3226 25.9882 26.6673 26.1315 26.896 26.4012C27.2715 26.844 27.2714 27.4867 26.8961 27.9295C26.6675 28.1991 26.3228 28.3424 25.9692 28.3424H19.5739C19.1541 28.3424 18.8139 28.6826 18.8139 29.1024C18.8139 29.5221 19.1541 29.8624 19.5739 29.8624H27.8741C29.0037 29.8624 29.429 29.3706 29.8793 28.8498C29.9696 28.7453 30.0632 28.6373 30.1715 28.5209L34.7044 23.6547C34.8997 23.445 35.1777 23.3272 35.4625 23.3285C36.0273 23.3285 36.4841 23.7885 36.4801 24.3534L36.4783 24.5938ZM18.4523 16.5433H22.748V11.0738H18.4523V16.5433ZM11.9736 11.0589H14.1454H14.1455H16.9323V16.9233C16.9323 17.5529 17.4427 18.0633 18.0723 18.0633H23.128C23.7576 18.0633 24.268 17.5529 24.268 16.9233V11.0589H27.0548H27.0549H29.2266V27.3051L29.0593 27.4849C28.9318 27.6218 28.8243 27.746 28.7295 27.8556C28.656 27.9407 28.5951 28.011 28.5416 28.0692C28.8078 27.3218 28.7336 26.4852 28.319 25.7874C27.8353 24.9737 26.9469 24.4682 26.0004 24.4682H21.6309C21.0774 24.4682 19.5523 24.0922 18.2068 23.7604C16.5909 23.362 15.0647 22.9858 14.2858 22.9858C13.6881 22.9858 12.8175 23.185 11.9736 23.4296V11.0589ZM14.5255 2.59602H17.5941V5.30876C17.5941 5.93835 18.1045 6.44876 18.7341 6.44876H22.4662C23.0959 6.44876 23.6062 5.93835 23.6062 5.30876V2.59602H26.6748V9.53892H14.5255V2.59602ZM19.1141 4.92876H22.0862V2.5961H19.1141V4.92876ZM35.4749 21.8086C34.7641 21.7995 34.0773 22.098 33.5922 22.6186L30.7466 25.6734V10.6789C30.7466 10.0493 30.2363 9.53892 29.6066 9.53892H28.1948V2.14002C28.1948 1.55239 27.7184 1.07602 27.1308 1.07602H23.6062H17.5941H14.1455C13.5159 1.07602 13.0055 1.58644 13.0055 2.21602V9.53892H11.5936C10.9641 9.53892 10.4536 10.0493 10.4536 10.6789V23.9188C10.4376 23.9244 10.4212 23.9301 10.4054 23.9356C10.3147 23.3968 9.84717 22.9858 9.28249 22.9858H1.14C0.510416 22.9858 0 23.4962 0 24.1258V32.3029C0 32.7226 0.340328 33.0629 0.76 33.0629C1.17975 33.0629 1.52 32.7226 1.52 32.3029V24.5058H8.90249L8.90241 33.8278L8.89284 34.0984H3.3155C2.89575 34.0984 2.5555 34.4387 2.5555 34.8584C2.5555 35.2781 2.89575 35.6184 3.3155 35.6184H9.28249C9.79754 35.6184 10.2324 35.2766 10.3738 34.8076C12.0653 35.2393 14.1072 35.6184 16.6698 35.6184H27.1025C29.1426 35.6184 31.0913 34.6441 32.3154 33.0121L37.4893 26.1137C37.8136 25.6812 37.9944 25.1453 37.9983 24.6048L37.9999 24.3727C38.0101 22.9702 36.8773 21.8199 35.4749 21.8086Z" fill="#3B3F51"/>
</g>
<path fill-rule="evenodd" clip-rule="evenodd" d="M0.740924 34.1475C0.331664 34.1475 0 34.4792 0 34.8884C0 35.2976 0.331664 35.6293 0.740924 35.6293C1.15011 35.6293 1.48185 35.2976 1.48185 34.8884C1.48185 34.4792 1.15011 34.1475 0.740924 34.1475Z" fill="#3B3F51"/>
</svg>
