<svg width="38" height="39" viewBox="0 0 38 39" fill="none" xmlns="http://www.w3.org/2000/svg">
<path fill-rule="evenodd" clip-rule="evenodd" d="M28.718 9.71832H12.6263C12.1514 9.71832 11.765 10.0825 11.765 10.5302C11.765 10.9779 12.1514 11.3422 12.6263 11.3422H28.718C29.1928 11.3422 29.5792 10.9779 29.5792 10.5302C29.5792 10.0825 29.1928 9.71832 28.718 9.71832Z" fill="#FFC917"/>
<path fill-rule="evenodd" clip-rule="evenodd" d="M29.5791 14.8471C29.5791 14.3917 29.2494 14.0351 28.8285 14.0351H12.5158C12.0948 14.0351 11.765 14.3917 11.765 14.8471C11.765 15.3023 12.0948 15.6589 12.5158 15.6589H28.8285C29.2494 15.6589 29.5791 15.3023 29.5791 14.8471Z" fill="#FFC917"/>
<path fill-rule="evenodd" clip-rule="evenodd" d="M28.718 18.3519H19.6156C19.1407 18.3519 18.7543 18.7161 18.7543 19.1638C18.7543 19.6115 19.1407 19.9757 19.6156 19.9757H28.718C29.1928 19.9757 29.5792 19.6115 29.5792 19.1638C29.5792 18.7161 29.1928 18.3519 28.718 18.3519Z" fill="#FFC917"/>
<path fill-rule="evenodd" clip-rule="evenodd" d="M28.8284 22.6688H23.1056C22.6846 22.6688 22.3547 23.0253 22.3547 23.4807C22.3547 23.936 22.6846 24.2926 23.1056 24.2926H28.8284C29.2494 24.2926 29.5791 23.936 29.5791 23.4807C29.5791 23.0253 29.2494 22.6688 28.8284 22.6688Z" fill="#FFC917"/>
<path fill-rule="evenodd" clip-rule="evenodd" d="M28.8283 26.9856H21.6935C21.2726 26.9856 20.9427 27.3422 20.9427 27.7974C20.9427 28.2528 21.2726 28.6094 21.6935 28.6094H28.8283C29.2494 28.6094 29.5791 28.2528 29.5791 27.7974C29.5791 27.3422 29.2494 26.9856 28.8283 26.9856Z" fill="#FFC917"/>
<mask id="mask0" mask-type="alpha" maskUnits="userSpaceOnUse" x="4" y="0" width="30" height="38">
<path fill-rule="evenodd" clip-rule="evenodd" d="M4 0.14035H33.9605V37.7346H4V0.14035Z" fill="white"/>
</mask>
<g mask="url(#mask0)">
<path fill-rule="evenodd" clip-rule="evenodd" d="M28.6662 2.17212L28.8198 2.32573L28.8196 2.32588L29.8679 3.37415L29.868 3.37408L31.9288 5.43513H28.6662V2.17212ZM33.2906 34.1377C32.9544 34.1053 32.6192 34.3053 32.5093 34.6624C32.4868 34.7362 32.4777 34.8128 32.4777 34.8902V36.252H8.86654V32.6256C9.11842 32.7309 9.37774 32.8233 9.64474 32.9023C13.9574 34.1813 18.4447 31.6038 19.5454 27.285C19.8756 25.9895 19.8628 24.685 19.5642 23.4692C19.4237 22.8933 18.7079 22.694 18.2944 23.1181C18.1123 23.3046 18.041 23.5714 18.1034 23.8242C18.3492 24.8263 18.3559 25.903 18.0732 26.9707C17.2153 30.2151 13.9439 32.261 10.653 31.6045C10.0108 31.4767 9.41165 31.2572 8.86654 30.964C8.31383 30.6663 7.81609 30.2925 7.38376 29.8602C5.84098 28.3166 5.12594 26.0211 5.70263 23.7572C6.57248 20.3421 10.0589 18.2722 13.4733 19.1421C13.8041 19.2263 14.1221 19.3354 14.4259 19.4663C14.7086 19.5888 15.0371 19.5181 15.2523 19.2978C15.398 19.1489 15.4665 18.9602 15.4665 18.7737C15.4665 18.4888 15.3063 18.209 15.0147 18.0835C14.6417 17.9226 14.2507 17.7887 13.8447 17.685C12.125 17.2466 10.3908 17.4127 8.86654 18.0484V1.62288H27.1836V5.82348C27.1836 6.42791 27.6735 6.91776 28.278 6.91776H32.4777V31.2434C32.4777 31.3207 32.4864 31.3983 32.5087 31.4722C32.6175 31.8311 32.9539 32.0311 33.2907 31.9993C33.6662 31.9635 33.9604 31.6327 33.9604 31.2463V5.67558C33.9604 5.47746 33.8832 5.29122 33.7432 5.1513L28.9476 0.357387C28.8076 0.217387 28.6214 0.14032 28.4235 0.14032H8.47827C7.87399 0.14032 7.38399 0.630245 7.38399 1.23461V18.8613C5.80195 19.9622 4.61211 21.6425 4.17406 23.6896C3.49579 26.8557 4.8485 30.0399 7.38376 31.8129V36.6399C7.38376 37.2444 7.87399 37.7346 8.47857 37.7346H32.8658C33.4703 37.7346 33.9605 37.2444 33.9605 36.6399V34.8902C33.9605 34.5039 33.6665 34.1737 33.2906 34.1377Z" fill="#FFC917"/>
</g>
<path fill-rule="evenodd" clip-rule="evenodd" d="M16.6597 20.265L10.9978 27.0126L9.03335 23.6101C8.84477 23.2835 8.38808 23.2058 7.99387 23.4335C7.59959 23.6611 7.43846 24.0953 7.6271 24.422L10.1912 28.8631C10.2006 28.8794 10.2112 28.8947 10.222 28.9098C10.2567 28.9614 10.2981 29.0091 10.3475 29.0507C10.6963 29.3433 11.2594 29.2269 11.6296 28.7857L17.9036 21.3087C18.2737 20.8676 18.2906 20.2927 17.9418 20.0002C17.593 19.7074 17.0299 19.8238 16.6597 20.265Z" fill="#FFC917"/>
</svg>
